<svg width="78" height="78" xmlns="http://www.w3.org/2000/svg"><path d="M18.48 1.371c-4.815.686-9.461 3.458-12.478 7.45-2.163 2.894-3.595 6.52-4.433 11.212-.38 2.194-.38 9.43 0 12.035.747 4.997 2.514 11.7 3.245 12.386.442.396.96.426 1.57.106.67-.335.685-.776.106-2.635-1.798-5.728-2.514-9.72-2.636-14.823-.122-4.966.229-7.785 1.402-11.274 1.752-5.194 6.215-9.597 11.502-11.35 1.188-.395 1.477-.426 3.732-.426 2.285-.015 2.514.016 3.656.412 1.89.67 3.184 1.508 4.8 3.138 1.69 1.721 3.26 3.504 3.153 3.61-.092.107-3.565-.487-5.012-.868-.64-.152-1.31-.29-1.478-.29-.884 0-1.28 1.448-.579 2.103.244.229 1.097.518 2.712.93 4.022 1.02 4.981 1.142 8.82 1.157 3.123 0 3.535-.03 4.617-.35 2.33-.67 3.747-1.615 5.438-3.641 2.361-2.819 3.596-3.9 5.698-4.951 1.813-.914 3.184-1.234 5.347-1.234 3.535-.016 6.536 1.112 9.598 3.58 3.412 2.727 5.484 6.672 6.566 12.43.457 2.469.426 10.772-.046 12.006-.06.182-1.798.213-12.233.213H49.39l-.061-2.636-.046-2.635-.564-1.158c-.685-1.386-1.569-2.24-2.985-2.91l-1.021-.487H31.597l-1.159.563c-1.386.686-2.24 1.57-2.91 2.986-.472 1.006-.487 1.067-.533 3.641l-.06 2.62-9.34.046c-8.942.046-9.353.061-9.658.336-.426.396-.442 1.34-.015 1.767.305.304.503.304 9.658.304h9.354l.061 2.712.046 2.712.564 1.158c.685 1.386 1.569 2.24 2.986 2.91l1.02.487H44.712l1.022-.488c.563-.259 1.325-.761 1.706-1.127.96-.883 1.736-2.483 1.874-3.839.076-.944.06-1.066-.26-1.402-.258-.274-.517-.38-.913-.38-.762 0-1.082.396-1.25 1.523-.137 1.082-.396 1.615-1.05 2.27-1.022 1.02-.854 1.005-7.146 1.051-3.138.03-6.002 0-6.337-.046-.884-.121-1.965-.883-2.468-1.736l-.412-.701V27.315l.457-.746a4.12 4.12 0 0 1 1.204-1.204l.747-.457h12.553l.746.457c.457.29.914.747 1.204 1.204l.457.746.076 3.397c.076 3.047.107 3.413.366 3.702l.289.32h12.858c12.126 0 12.842.016 12.842.26 0 .441-.685 3.336-1.203 5.072-.838 2.88-7.42 22.563-8.394 25.137-.518 1.386-1.204 3.078-1.524 3.748-1.858 4.022-4.463 5.835-7.739 5.378-1.234-.183-2.026-.595-2.94-1.54-1.432-1.492-2.468-4.128-3.93-10.07-1.036-4.158-1.6-5.91-2.423-7.494-.762-1.432-2.102-2.773-3.458-3.443-.99-.488-1.158-.518-2.59-.518-1.34 0-1.63.045-2.422.411-1.34.64-2.3 1.417-3.062 2.483-1.295 1.813-2.042 3.885-3.29 9.156-1.235 5.271-2.317 7.952-3.81 9.506-.883.914-1.69 1.326-2.91 1.509-2.117.289-3.99-.366-5.499-1.95-1.95-2.042-2.986-4.54-7.358-17.596-1.432-4.296-2.3-6.658-2.514-6.901-.487-.503-1.37-.488-1.797.045-.183.229-.32.549-.32.732 0 .487 5.119 15.737 6.17 18.372 1.889 4.784 3.214 6.825 5.454 8.394 1.447 1.021 3.016 1.509 4.798 1.509 4.388-.016 7.206-2.62 9.08-8.456.213-.67.731-2.65 1.143-4.417 1.249-5.333 2.041-7.404 3.29-8.745 1.31-1.402 2.971-1.782 4.57-1.02 2.088.99 2.895 2.726 4.8 10.298 1.477 5.896 2.59 8.424 4.524 10.192 1.615 1.492 3.29 2.148 5.515 2.148 4.692 0 7.54-2.773 10.39-10.1 1.63-4.22 8.592-25.427 9.338-28.443 2.011-8.196 2.133-14.656.381-21.664-1.218-4.905-2.65-7.571-5.484-10.237C66.589 3.214 62.14 1.37 57.738 1.37c-3.367 0-6.2.93-8.836 2.91-1.264.944-2.209 1.92-4.083 4.128-2.04 2.392-3.366 3.078-5.971 3.093-1.417 0-1.691-.046-2.484-.411-1.218-.58-2.01-1.265-3.519-3.078-3.168-3.824-5.88-5.682-9.43-6.429-1.37-.29-3.686-.396-4.936-.213Z"/></svg>