<svg width="78" height="78" xmlns="http://www.w3.org/2000/svg"><path d="M16.76.171C11.456 1.18 6.577 4.547 3.791 9.095 2.422 11.315.974 15.58.361 19.136c-.551 3.242-.457 9.585.188 13.661.693 4.392 2.314 10.467 2.943 11.096.425.425 1.322.268 1.81-.299.457-.535.441-.66-.472-3.84-1.48-5.068-2.172-9.742-2.172-14.558 0-4.266.41-7.083 1.48-10.278 1.825-5.43 6.405-9.962 11.898-11.772 1.228-.41 1.527-.44 3.856-.44 2.36-.017 2.597.015 3.777.424 1.952.693 3.29 1.558 4.958 3.242 1.747 1.779 3.368 3.62 3.258 3.73-.095.11-3.683-.503-5.178-.897-.661-.157-1.354-.299-1.527-.299-.913 0-1.322 1.495-.598 2.172.252.236 1.133.535 2.802.96 3.73.944 5.083 1.15 8.483 1.228 2.675.063 3.273.031 4.627-.236 2.927-.614 4.438-1.606 6.972-4.596 2.093-2.455 3.163-3.368 5.162-4.375 2.99-1.495 6.972-1.716 10.34-.567 4.124 1.4 7.775 4.659 9.869 8.845 1.668 3.305 2.518 7.696 2.534 12.859 0 3.525-.284 6.216-1.023 9.915-.724 3.588-.819 3.856-5.037 16.604-5.792 17.533-6.72 19.8-9.018 21.893-1.527 1.385-3.21 1.935-5.32 1.684-1.951-.22-3.368-1.401-4.532-3.81-.976-1.998-1.385-3.32-2.613-8.183-1.889-7.586-3.1-9.821-6.122-11.316-.96-.472-1.15-.504-2.613-.504-1.385 0-1.684.047-2.502.425-3.337 1.574-4.77 4.187-6.563 12.009-1.574 6.925-3.258 10.151-5.745 11.08-.928.362-2.817.472-3.777.236-.866-.205-1.999-.882-2.849-1.684-2.156-2.046-3.447-5.115-8.467-20.256-1.29-3.903-2.298-6.673-2.487-6.878-.724-.802-2.156-.236-2.156.834 0 .583 5.603 17.392 6.846 20.524 1.999 5.052 3.337 7.082 5.808 8.797 2.424 1.669 5.933 1.905 8.656.583 1.7-.834 3.431-2.833 4.47-5.147.755-1.668 1.4-3.824 2.219-7.302 1.306-5.509 2.109-7.65 3.4-9.034.975-1.04 1.81-1.433 3.006-1.433 1.164 0 2.108.41 3.021 1.307 1.26 1.212 1.92 2.959 3.51 9.238 1.7 6.658 2.786 9.144 4.816 11.002 1.668 1.542 3.4 2.219 5.697 2.219 3.856 0 6.72-2.046 8.956-6.422 1.322-2.58 2.44-5.65 6.421-17.58 4.847-14.59 5.32-16.242 6.233-21.955.314-1.999.362-2.849.362-6.768-.016-4.816-.126-5.87-.96-9.191-1.669-6.563-5.572-11.63-10.986-14.26C63.614.644 61.914.235 59.16.14c-3.494-.11-5.87.472-8.814 2.219-1.715 1.007-3.21 2.345-4.973 4.438-2.424 2.88-3.715 3.589-6.516 3.589-1.48.015-1.747-.032-2.565-.41-1.275-.598-1.842-1.101-3.81-3.383-3.147-3.636-5.555-5.257-9.285-6.264-1.353-.362-4.863-.441-6.437-.158Z"/><path d="M22.08 18.79c-.992.378-1.558.724-2.298 1.432-.74.677-.803 1.338-.205 1.905.535.503 1.18.472 1.842-.079 1.605-1.353 3.808-1.37 5.398-.047.661.566 1.086.66 1.621.377.52-.267.661-.535.661-1.227 0-.614-.818-1.385-2.188-2.062-.88-.44-1.196-.503-2.518-.535-1.18-.047-1.684.016-2.313.236ZM50.315 18.837c-.913.205-2.345.992-2.99 1.621-.693.677-.772 1.244-.268 1.889.472.598 1.164.55 2.046-.142 1.7-1.322 3.667-1.322 5.32 0 .834.661 1.432.709 1.983.158.582-.567.519-1.196-.19-1.905-1.447-1.385-3.95-2.077-5.901-1.62ZM27.132 29.823c-1.48.66-2.235 2.298-2.062 4.438.488 5.918 4.549 10.671 10.45 12.213 2.062.536 4.675.567 6.69.079 5.46-1.338 9.663-5.855 10.639-11.426.425-2.33.015-3.195-1.432-3.1-.536.03-.913.66-.913 1.463 0 1.007-.41 2.99-.834 3.982-1.008 2.424-3.022 4.533-5.367 5.666-1.936.913-3.274 1.227-5.21 1.227-6.154-.047-10.954-4.438-11.505-10.513-.094-1.023-.063-1.18.236-1.48.441-.44.787-.424 2.408.142 5.84 1.983 10.844 2.062 16.699.283 1.275-.377 1.684-.723 1.684-1.4 0-1.26-.661-1.558-2.377-1.007-3.147.991-6.17 1.337-9.19 1.038-2.456-.236-3.794-.535-6.029-1.29-2.03-.677-2.927-.756-3.887-.315Z"/></svg>