<svg width="86" height="86" xmlns="http://www.w3.org/2000/svg"><path d="M18.98 1.495C11.64 3.125 5.744 8.768 3.107 16.663.873 23.364.79 31.443 2.872 40.9c.823 3.73 1.915 5.594 4.082 7.005 2.066 1.327-.588 1.21 30.419 1.31l27.715.084v2.351c0 2.2-.034 2.402-.42 3.108-.286.487-.689.89-1.176 1.176l-.756.42H43.084c-19.602 0-19.652 0-20.324-.353-.94-.487-1.58-1.462-1.714-2.57-.134-1.125-.487-1.529-1.377-1.529-.52 0-.739.101-1.024.47-.32.387-.353.589-.27 1.361.253 2.15 1.764 4.132 3.763 4.905.874.336 1.327.386 4.787.453l3.813.068V62.652h-1.176c-1.041 0-1.242.05-1.595.42-.555.538-.555 1.31 0 1.848.353.37.554.42 1.595.42h1.176v3.662l-1.243.067c-1.512.067-1.948.37-1.948 1.293.017 1.058.319 1.26 1.948 1.36l1.445.085.37 1.175c1.058 3.326 3.93 7.122 7.508 9.91 3.947 3.091 7.105 2.403 11.421-2.469 2.386-2.72 3.679-4.787 4.536-7.256l.47-1.36 1.192-.084c1.378-.101 1.68-.336 1.68-1.344 0-.874-.453-1.226-1.68-1.31l-1.007-.067V65.34h.94c1.126 0 1.462-.168 1.747-.84.269-.638 0-1.377-.605-1.663-.302-.134-3.813-.185-12.245-.185H33.426v-3.51l14.831-.05 14.815-.051 1.008-.403c1.377-.554 2.755-1.932 3.275-3.292.32-.84.387-1.445.47-3.561l.085-2.57h3.98c5.376 0 6.753-.303 8.45-1.848 1.444-1.327 2.082-2.755 2.956-6.635 2.486-11.018 1.814-20.66-1.966-28.034-2.939-5.76-7.995-9.557-14.294-10.75-1.595-.302-4.45-.352-6.063-.1-3.998.621-7.525 2.738-10.549 6.332-1.78 2.117-3.057 3.191-4.67 3.947-1.058.504-1.293.555-2.754.555-1.428 0-1.713-.05-2.688-.521-1.578-.756-2.603-1.646-4.484-3.88-2.688-3.175-4.284-4.502-6.87-5.694-2.05-.958-3.528-1.277-6.198-1.344-1.865-.05-2.654 0-3.78.252Zm7.021 2.855c2.587.756 5.157 2.47 6.837 4.586.47.571 1.276 1.528 1.83 2.1l.975 1.041-.638-.1c-.37-.051-1.294-.286-2.083-.521-1.932-.555-2.117-.588-2.604-.47-.57.15-.99 1.074-.756 1.679.219.57.69.84 2.352 1.344 4.2 1.26 10.263 1.814 13.118 1.209 2.234-.47 4.35-1.864 6.4-4.182C55.346 6.6 58.134 4.888 62.266 4.35c4.703-.587 10.162 1.58 13.84 5.527 5.93 6.332 7.542 18.006 4.334 31.275-.79 3.31-1.596 4.401-3.695 5.056-.991.303-2.033.32-33.762.32-32.636 0-32.72 0-33.644-.353-1.125-.42-2.268-1.478-2.872-2.671-.89-1.764-1.949-7.475-2.301-12.312-.353-4.955.252-10.061 1.646-14.076 2.368-6.853 7.542-11.674 13.941-13 1.613-.337 4.653-.22 6.248.234Zm26.741 62.838v1.847H33.426V65.34h19.316v1.847Zm-.437 4.904c-.436 1.462-1.88 3.981-3.157 5.51-1.31 1.578-3.343 3.493-4.183 3.964-.689.386-1.075.487-1.881.47-1.613 0-2.67-.706-5.073-3.41-2.015-2.25-3.594-4.72-4.149-6.534l-.117-.37h18.678l-.118.37Z"/></svg>