<svg width="104" height="104" xmlns="http://www.w3.org/2000/svg"><path d="M30.103 2.031a2.38 2.38 0 0 0-.569.894c-.06.244-.08 3.108-.04 6.337l.06 5.87.57 1.159c.995 2.01 2.782 3.209 5.078 3.372l1.36.101v2.986c0 3.697.244 4.53 1.707 6.012 1.32 1.32 2.437 1.707 4.834 1.707h1.788v6.52l-.447-.122c-1.361-.406-2.702-1.401-4.997-3.717-3.514-3.514-5.79-4.895-9.222-5.606-7.963-1.646-16.798 3.534-20.8 12.167C6.5 46.069 6.358 55.697 9.08 65.406c.528 1.91 6.967 20.414 8.551 24.578 2.052 5.424 3.392 7.82 5.403 9.71 3.129 2.925 7.272 3.514 10.888 1.544 1.32-.711 3.087-2.6 3.839-4.104 1.076-2.153 2.864-7.78 2.864-9.018 0-.793-.813-1.585-1.625-1.585-.813 0-1.34.569-1.706 1.869-1.138 4.164-1.442 5.098-2.133 6.56-1.361 2.926-2.681 3.962-5.2 4.124-2.762.163-4.997-1.259-6.662-4.245-1.057-1.869-2.804-6.317-5.546-14.097-4.022-11.375-5.728-16.555-6.256-18.992-1.808-8.206-1.442-15.722 1.015-20.902 2.296-4.895 6.968-8.612 12.107-9.648 3.047-.63 5.647-.284 8.49 1.117 1.483.731 2.032 1.178 3.9 3.108 1.22 1.219 2.194 2.295 2.194 2.377 0 .182-2.031-.163-4.306-.732-1.077-.284-2.072-.508-2.194-.508-.467 0-1.219.996-1.219 1.626 0 1.015.325 1.36 1.666 1.807 4.753 1.564 11.395 1.97 15.377.935 2.884-.752 3.575-1.26 8.572-6.54 2.356-2.5 4.732-3.515 8.226-3.515 3.087 0 6.236 1.036 9.263 3.067 1.645 1.097 4.326 3.86 5.22 5.322 2.254 3.798 3.331 9.527 2.864 15.295-.508 6.48-1.056 8.45-6.703 24.457-4.672 13.264-5.749 15.803-7.536 17.753-1.544 1.686-2.722 2.234-4.753 2.254-1.93 0-2.824-.365-4.083-1.645-1.625-1.686-2.702-4.266-4.347-10.44-.569-2.154-1.26-4.449-1.523-5.12-1.422-3.513-4.49-5.626-7.8-5.402-1.666.121-2.966.69-4.185 1.807-2.397 2.215-2.64 4.652-.467 4.652.813 0 1.097-.203 2.174-1.625 1.868-2.478 5.484-1.848 7.028 1.24.507.994 1.097 2.924 2.518 8.226 1.605 5.951 3.311 8.957 5.992 10.542 2.438 1.442 6.379 1.462 9.1.081 1.016-.508 2.844-2.194 3.636-3.352.813-1.178 2.235-4.082 3.23-6.56 1.24-3.129 8.186-22.954 8.897-25.411 2.54-8.714 2.844-16.657.914-23.36-1.665-5.81-5.81-10.623-11.497-13.304-5.037-2.397-9.953-2.54-14.26-.407-2.294 1.138-3.818 2.357-5.483 4.49-.732.913-1.646 1.909-2.032 2.193-.772.59-2.681 1.544-3.108 1.544-.203 0-.243-.731-.203-3.311l.061-3.29 2.133-.102c2.417-.122 3.25-.447 4.49-1.767 1.462-1.524 1.685-2.215 1.766-5.77l.081-3.168 1.28-.122c2.357-.183 4.408-1.665 5.18-3.737.366-.975.406-1.585.406-6.053V4.875h14.584c12.858 0 14.625.04 15.032.325.426.284.447.467.447 2.62s-.02 2.336-.447 2.62c-.407.285-1.99.326-13.082.326-12.451 0-12.634 0-13.162.426-.752.59-.752 1.808 0 2.397.528.427.69.427 13.264.427 8.328 0 12.98-.082 13.488-.224.995-.264 2.335-1.483 2.803-2.519.548-1.178.548-5.728 0-6.906-.468-1.036-1.808-2.255-2.803-2.519-.528-.162-9.568-.223-28.458-.223H37.558l-.488.508c-.325.304-.508.731-.508 1.117s.183.812.508 1.117l.488.508h22.77v4.773c0 5.302-.081 5.668-1.28 6.399-.63.386-1.096.406-12.43.406-11.03 0-11.843-.02-12.473-.366-1.38-.751-1.442-1.056-1.442-7.617V2.62l-.508-.487c-.609-.63-1.483-.65-2.092-.102Zm23.319 20.313c0 2.925-.203 3.717-1.117 4.428-.549.426-.731.447-5.627.447-4.326 0-5.16-.04-5.647-.325-1.056-.65-1.218-1.178-1.218-4.327v-2.864h13.609v2.64Z"/></svg>