<svg width="36" height="36" fill="none" xmlns="http://www.w3.org/2000/svg"><path fill-rule="evenodd" clip-rule="evenodd" d="M14.58 1.44C9.7-1.303 5.377-.013 1.783 4.35c-3.467 4.21-1.103 11.799.596 17.255.405 1.3.773 2.48 1.015 3.464 1.254 5.108 2.456 8.291 5.193 10.595 1.356 1.141 2.893-.82 4.516-2.887 1.406-1.794 2.875-3.668 4.346-3.673 1.445-.004 2.892 1.868 4.28 3.661 1.6 2.07 3.121 4.039 4.469 2.9 2.092-1.767 3.04-3.063 4.19-6.701 1.252-3.968 3.276-8.713 4.885-14.183 1.132-3.848 1.267-7.767-1.995-11.548-4.657-5.4-11.111-2.61-14.116-.825l4.07 3.488a1.127 1.127 0 0 1-1.465 1.71L14.58 1.44Z" fill="#06D6A0"/></svg>