<svg width="33" height="33" xmlns="http://www.w3.org/2000/svg"><path d="M11.188 6.187a15.448 15.448 0 0 0 .771 4.848c.186.592.026 1.186-.391 1.573l-.008.007-.007.007-1.964 1.976-.262.264.178.327a20.65 20.65 0 0 0 8.292 8.29l.328.178.264-.264 1.978-1.978a1.594 1.594 0 0 1 1.59-.379c1.562.515 3.195.776 4.855.776.861 0 1.563.702 1.563 1.563v4.813c0 .86-.701 1.562-1.563 1.562C13.82 29.75 3.25 19.18 3.25 6.187c0-.86.702-1.562 1.563-1.562h4.812c.86 0 1.562.701 1.563 1.562Zm0 0h.5-.5Zm9.439 15.499-.002.002-2.421 2.422c-4.097-2.16-7.186-5.25-9.329-9.326l2.427-2.44a1.151 1.151 0 0 0 .3-1.2l-.474.159.475-.157a15.785 15.785 0 0 1-.79-4.959A1.187 1.187 0 0 0 9.624 5H4.812a1.188 1.188 0 0 0-1.187 1.188c0 12.785 10.402 23.187 23.188 23.187A1.19 1.19 0 0 0 28 28.187v-4.812a1.19 1.19 0 0 0-1.188-1.188 15.77 15.77 0 0 1-4.967-.794l-.009-.003a1.21 1.21 0 0 0-1.21.296Z" stroke="#000952"/></svg>