<svg width="111" height="107" xmlns="http://www.w3.org/2000/svg"><ellipse cx="55.641" cy="53.395" rx="55.277" ry="53.395" fill-opacity=".17"/><ellipse cx="55.641" cy="53.395" rx="46.773" ry="45.181" fill-opacity=".42"/><path d="M55.96 16.737c-21.133 0-38.268 16.552-38.268 36.966S34.827 90.67 55.96 90.67 94.23 74.117 94.23 53.703 77.093 16.737 55.96 16.737Zm12.31 37.535L49.612 67.385a.701.701 0 0 1-.984-.192.645.645 0 0 1-.1-.344V40.64c0-.121.034-.241.1-.345a.676.676 0 0 1 .272-.244.705.705 0 0 1 .712.053L68.27 53.208c.088.06.16.14.21.233a.633.633 0 0 1-.21.831Z" fill="#fff"/></svg>