<svg xmlns="http://www.w3.org/2000/svg" xmlns:xlink="http://www.w3.org/1999/xlink"><defs>
<linearGradient id="paint0_linear_229_86" x1="8" y1="51" x2="8" y2="0" gradientUnits="userSpaceOnUse">
<stop stop-color="#06D6A0"/>
<stop offset="1" stop-color="#06D6A0" stop-opacity="0"/>
</linearGradient>
</defs><symbol id="ArrowBottom" viewBox="0 0 16 73">
<path d="M7.2929 72.7071C7.68342 73.0976 8.31659 73.0976 8.70711 72.7071L15.0711 66.3431C15.4616 65.9526 15.4616 65.3195 15.0711 64.9289C14.6805 64.5384 14.0474 64.5384 13.6569 64.9289L8 70.5858L2.34315 64.9289C1.95262 64.5384 1.31946 64.5384 0.928935 64.9289C0.538411 65.3195 0.538411 65.9526 0.928935 66.3431L7.2929 72.7071ZM7 4.37114e-08L7 72L9 72L9 -4.37114e-08L7 4.37114e-08Z" fill="url(#paint0_linear_229_86)" fill-opacity="0.59"/>

</symbol><symbol id="clock" viewBox="0 0 16 16">
  <path d="M8 3.5a.5.5 0 0 0-1 0V9a.5.5 0 0 0 .252.434l3.5 2a.5.5 0 0 0 .496-.868L8 8.71V3.5z"/>
  <path d="M8 16A8 8 0 1 0 8 0a8 8 0 0 0 0 16zm7-8A7 7 0 1 1 1 8a7 7 0 0 1 14 0z"/>
</symbol><symbol id="clouds-fill" viewBox="0 0 16 16">
  <path d="M11.473 9a4.5 4.5 0 0 0-8.72-.99A3 3 0 0 0 3 14h8.5a2.5 2.5 0 1 0-.027-5z"/>
  <path d="M14.544 9.772a3.506 3.506 0 0 0-2.225-1.676 5.502 5.502 0 0 0-6.337-4.002 4.002 4.002 0 0 1 7.392.91 2.5 2.5 0 0 1 1.17 4.769z"/>
</symbol><symbol id="coin" viewBox="0 0 16 16">
  <path d="M5.5 9.511c.076.954.83 1.697 2.182 1.785V12h.6v-.709c1.4-.098 2.218-.846 2.218-1.932 0-.987-.626-1.496-1.745-1.76l-.473-.112V5.57c.6.068.982.396 1.074.85h1.052c-.076-.919-.864-1.638-2.126-1.716V4h-.6v.719c-1.195.117-2.01.836-2.01 1.853 0 .9.606 1.472 1.613 1.707l.397.098v2.034c-.615-.093-1.022-.43-1.114-.9H5.5zm2.177-2.166c-.59-.137-.91-.416-.91-.836 0-.47.345-.822.915-.925v1.76h-.005zm.692 1.193c.717.166 1.048.435 1.048.91 0 .542-.412.914-1.135.982V8.518l.087.02z"/>
  <path d="M8 15A7 7 0 1 1 8 1a7 7 0 0 1 0 14zm0 1A8 8 0 1 0 8 0a8 8 0 0 0 0 16z"/>
  <path d="M8 13.5a5.5 5.5 0 1 1 0-11 5.5 5.5 0 0 1 0 11zm0 .5A6 6 0 1 0 8 2a6 6 0 0 0 0 12z"/>
</symbol><symbol id="Logo" viewBox="0 0 36 36">
<path fill-rule="evenodd" clip-rule="evenodd" d="M14.5798 1.44083C9.69958 -1.30417 5.37734 -0.0137906 1.78296 4.34896C-1.68429 8.55871 0.68046 16.148 2.37921 21.6042C2.78421 22.9047 3.15209 24.0848 3.39396 25.0681C4.64834 30.1756 5.84984 33.3593 8.58696 35.6633C9.94259 36.8041 11.4805 34.8432 13.1027 32.7755C14.509 30.9822 15.9782 29.108 17.4486 29.1035C18.8942 29.099 20.341 30.971 21.7281 32.7642C23.329 34.8342 24.85 36.803 26.1977 35.6633C28.2902 33.8971 29.2386 32.6011 30.3883 28.9628C31.6405 24.995 33.6643 20.2497 35.2731 14.78C36.4048 10.9325 36.5398 7.01296 33.2785 3.23183C28.621 -2.16817 22.1668 0.621835 19.162 2.40721L23.2322 5.89471C23.3445 5.99089 23.4367 6.10824 23.5037 6.24006C23.5706 6.37188 23.6109 6.5156 23.6223 6.663C23.6337 6.8104 23.6159 6.9586 23.57 7.09914C23.5241 7.23968 23.451 7.3698 23.3548 7.48209C23.2587 7.59437 23.1413 7.6866 23.0095 7.75353C22.8777 7.82046 22.7339 7.86077 22.5865 7.87215C22.4391 7.88354 22.2909 7.86578 22.1504 7.8199C22.0099 7.77401 21.8797 7.70089 21.7675 7.60471L14.5798 1.43971V1.44083Z" fill="#06D6A0"/>
</symbol><symbol id="Phone" viewBox="0 0 24 24">
<path d="M9.83041 13.5244C11.28 14.995 13.0341 16.1304 14.9693 16.8508L17.5874 14.7675C17.665 14.714 17.757 14.6854 17.8512 14.6854C17.9455 14.6854 18.0375 14.714 18.1151 14.7675L22.9762 17.8994C23.1608 18.0104 23.317 18.1627 23.4326 18.3444C23.5481 18.5261 23.6198 18.7322 23.6421 18.9464C23.6643 19.1606 23.6364 19.377 23.5606 19.5786C23.4849 19.7801 23.3632 19.9613 23.2054 20.1078L20.9276 22.3578C20.6014 22.6801 20.2005 22.9166 19.7606 23.0463C19.3208 23.1759 18.8557 23.1947 18.4068 23.1008C13.9292 22.176 9.80203 20.0102 6.49707 16.8508C3.26546 13.66 1.02921 9.60003 0.0595734 5.16333C-0.036214 4.72141 -0.0162218 4.26224 0.117612 3.83032C0.251446 3.3984 0.494584 3.00838 0.823462 2.69805L3.18457 0.42027C3.33068 0.270122 3.50887 0.154975 3.70579 0.0834488C3.9027 0.011923 4.11325 -0.0141274 4.32166 0.00724821C4.53008 0.0286238 4.73095 0.0968715 4.90925 0.206881C5.08755 0.31689 5.23865 0.465811 5.35124 0.642492L8.58735 5.4411C8.64317 5.51645 8.6733 5.60775 8.6733 5.70152C8.6733 5.79529 8.64317 5.88659 8.58735 5.96194L6.45541 8.52444C7.19539 10.4209 8.34828 12.1289 9.83041 13.5244Z" fill="#06D6A0"/>
</symbol></svg>