<svg xmlns="http://www.w3.org/2000/svg" xmlns:xlink="http://www.w3.org/1999/xlink"><defs>
<filter id="filter0_d_238_363" x="0.5" y="0" width="54" height="54" filterUnits="userSpaceOnUse" color-interpolation-filters="sRGB">
<feFlood flood-opacity="0" result="BackgroundImageFix"/>
<feColorMatrix in="SourceAlpha" type="matrix" values="0 0 0 0 0 0 0 0 0 0 0 0 0 0 0 0 0 0 127 0" result="hardAlpha"/>
<feOffset dy="4"/>
<feGaussianBlur stdDeviation="2"/>
<feComposite in2="hardAlpha" operator="out"/>
<feColorMatrix type="matrix" values="0 0 0 0 0 0 0 0 0 0 0 0 0 0 0 0 0 0 0.25 0"/>
<feBlend mode="normal" in2="BackgroundImageFix" result="effect1_dropShadow_238_363"/>
<feBlend mode="normal" in="SourceGraphic" in2="effect1_dropShadow_238_363" result="shape"/>
</filter>
<linearGradient id="paint0_linear_238_363" x1="49.35" y1="19.55" x2="7.95" y2="20.125" gradientUnits="userSpaceOnUse">
<stop stop-color="#06D6A0"/>
<stop offset="1" stop-color="#06D6A0" stop-opacity="0"/>
</linearGradient>
<linearGradient id="paint1_linear_238_363" x1="25.1999" y1="23" x2="5.6499" y2="23" gradientUnits="userSpaceOnUse">
<stop stop-color="#06D6A0"/>
<stop offset="1" stop-color="#06D6A0" stop-opacity="0"/>
</linearGradient>

<linearGradient id="paint0_linear_421_227" x1="45.35" y1="19.55" x2="3.95" y2="20.125" gradientUnits="userSpaceOnUse">
<stop stop-color="#06D6A0"/>
<stop offset="1" stop-color="#06D6A0" stop-opacity="0"/>
</linearGradient>
<linearGradient id="paint1_linear_421_227" x1="21.1999" y1="23" x2="1.6499" y2="23" gradientUnits="userSpaceOnUse">
<stop stop-color="#06D6A0"/>
<stop offset="1" stop-color="#06D6A0" stop-opacity="0"/>
</linearGradient>
</defs><symbol id="Logo" viewBox="0 0 36 36">
<path fill-rule="evenodd" clip-rule="evenodd" d="M14.5798 1.44083C9.69958 -1.30417 5.37734 -0.0137906 1.78296 4.34896C-1.68429 8.55871 0.68046 16.148 2.37921 21.6042C2.78421 22.9047 3.15209 24.0848 3.39396 25.0681C4.64834 30.1756 5.84984 33.3593 8.58696 35.6633C9.94259 36.8041 11.4805 34.8432 13.1027 32.7755C14.509 30.9822 15.9782 29.108 17.4486 29.1035C18.8942 29.099 20.341 30.971 21.7281 32.7642C23.329 34.8342 24.85 36.803 26.1977 35.6633C28.2902 33.8971 29.2386 32.6011 30.3883 28.9628C31.6405 24.995 33.6643 20.2497 35.2731 14.78C36.4048 10.9325 36.5398 7.01296 33.2785 3.23183C28.621 -2.16817 22.1668 0.621835 19.162 2.40721L23.2322 5.89471C23.3445 5.99089 23.4367 6.10824 23.5037 6.24006C23.5706 6.37188 23.6109 6.5156 23.6223 6.663C23.6337 6.8104 23.6159 6.9586 23.57 7.09914C23.5241 7.23968 23.451 7.3698 23.3548 7.48209C23.2587 7.59437 23.1413 7.6866 23.0095 7.75353C22.8777 7.82046 22.7339 7.86077 22.5865 7.87215C22.4391 7.88354 22.2909 7.86578 22.1504 7.8199C22.0099 7.77401 21.8797 7.70089 21.7675 7.60471L14.5798 1.43971V1.44083Z" fill="#06D6A0"/>
</symbol><symbol id="Phone" viewBox="0 0 24 24">
<path d="M9.83041 13.5244C11.28 14.995 13.0341 16.1304 14.9693 16.8508L17.5874 14.7675C17.665 14.714 17.757 14.6854 17.8512 14.6854C17.9455 14.6854 18.0375 14.714 18.1151 14.7675L22.9762 17.8994C23.1608 18.0104 23.317 18.1627 23.4326 18.3444C23.5481 18.5261 23.6198 18.7322 23.6421 18.9464C23.6643 19.1606 23.6364 19.377 23.5606 19.5786C23.4849 19.7801 23.3632 19.9613 23.2054 20.1078L20.9276 22.3578C20.6014 22.6801 20.2005 22.9166 19.7606 23.0463C19.3208 23.1759 18.8557 23.1947 18.4068 23.1008C13.9292 22.176 9.80203 20.0102 6.49707 16.8508C3.26546 13.66 1.02921 9.60003 0.0595734 5.16333C-0.036214 4.72141 -0.0162218 4.26224 0.117612 3.83032C0.251446 3.3984 0.494584 3.00838 0.823462 2.69805L3.18457 0.42027C3.33068 0.270122 3.50887 0.154975 3.70579 0.0834488C3.9027 0.011923 4.11325 -0.0141274 4.32166 0.00724821C4.53008 0.0286238 4.73095 0.0968715 4.90925 0.206881C5.08755 0.31689 5.23865 0.465811 5.35124 0.642492L8.58735 5.4411C8.64317 5.51645 8.6733 5.60775 8.6733 5.70152C8.6733 5.79529 8.64317 5.88659 8.58735 5.96194L6.45541 8.52444C7.19539 10.4209 8.34828 12.1289 9.83041 13.5244Z" fill="#06D6A0"/>
</symbol><symbol id="ServiceButton" viewBox="0 0 55 48">
<g filter="url(#filter0_d_238_363)">
<circle cx="27.5" cy="23" r="22.5" stroke="url(#paint0_linear_238_363)" stroke-opacity="0.5"/>
<path d="M33.6035 23.3536C33.7987 23.1583 33.7987 22.8417 33.6035 22.6464L30.4215 19.4645C30.2262 19.2692 29.9096 19.2692 29.7144 19.4645C29.5191 19.6597 29.5191 19.9763 29.7144 20.1716L32.5428 23L29.7144 25.8284C29.5191 26.0237 29.5191 26.3403 29.7144 26.5355C29.9096 26.7308 30.2262 26.7308 30.4215 26.5355L33.6035 23.3536ZM5.6499 23.5H33.2499V22.5H5.6499V23.5Z" fill="url(#paint1_linear_238_363)" fill-opacity="0.59"/>
</g>

</symbol><symbol id="braces" viewBox="0 0 78 78">
<path d="M18.4793 1.37109C13.6652 2.05664 9.0187 4.8293 6.0023 8.82071C3.83901 11.7152 2.40698 15.341 1.56909 20.0332C1.18823 22.227 1.18823 29.4633 1.56909 32.0684C2.31558 37.0652 4.08276 43.7684 4.81401 44.4539C5.25581 44.85 5.77378 44.8805 6.38316 44.5605C7.05347 44.2254 7.0687 43.7836 6.4898 41.925C4.69214 36.1969 3.97612 32.2055 3.85425 27.102C3.73237 22.1355 4.08276 19.3172 5.25581 15.8285C7.00777 10.6336 11.4714 6.23087 16.7578 4.47891C17.946 4.08282 18.2355 4.05235 20.4902 4.05235C22.7753 4.03711 23.0039 4.06758 24.1464 4.46368C26.0355 5.13399 27.3304 5.97188 28.9453 7.60196C30.6363 9.32344 32.2054 11.1059 32.0988 11.2125C32.0074 11.3191 28.5339 10.725 27.0867 10.3441C26.4468 10.1918 25.7765 10.0547 25.6089 10.0547C24.7253 10.0547 24.3293 11.502 25.03 12.157C25.2738 12.3856 26.1269 12.675 27.7418 13.0863C31.7636 14.107 32.7234 14.2289 36.5625 14.2441C39.6855 14.2441 40.0968 14.2137 41.1785 13.8938C43.5093 13.2234 44.9261 12.2789 46.6171 10.2527C48.9785 7.43438 50.2125 6.35274 52.3148 5.30157C54.1277 4.3875 55.4988 4.06758 57.6621 4.06758C61.1965 4.05235 64.1976 5.17969 67.2597 7.64766C70.6722 10.3746 72.7441 14.3203 73.8258 20.0789C74.2828 22.5469 74.2523 30.8496 73.7801 32.0836C73.7191 32.2664 71.9824 32.2969 61.5468 32.2969H49.3898L49.3289 29.6613L49.2832 27.0258L48.7195 25.868C48.0339 24.4816 47.1504 23.6285 45.7336 22.9582L44.7129 22.4707H38.1468H31.5961L30.4382 23.0344C29.0519 23.7199 28.1988 24.6035 27.5285 26.0203C27.0562 27.0258 27.041 27.0867 26.9953 29.6613L26.9343 32.2816L17.5957 32.3273C8.65308 32.373 8.24175 32.3883 7.93706 32.6625C7.5105 33.0586 7.49527 34.0031 7.92183 34.4297C8.22652 34.7344 8.42456 34.7344 17.5804 34.7344H26.9343L26.9953 37.4461L27.041 40.1578L27.6046 41.3156C28.2902 42.702 29.1738 43.5551 30.5906 44.2254L31.6113 44.7129H38.1621H44.7129L45.7336 44.2254C46.2972 43.9664 47.0589 43.4637 47.4398 43.098C48.3996 42.2145 49.1765 40.6148 49.3136 39.259C49.3898 38.3145 49.3746 38.1926 49.0547 37.8574C48.7957 37.5832 48.5367 37.4766 48.1406 37.4766C47.3789 37.4766 47.0589 37.8727 46.8914 39C46.7543 40.0816 46.4953 40.6148 45.8402 41.2699C44.8195 42.2906 44.9871 42.2754 38.6953 42.3211C35.557 42.3516 32.6929 42.3211 32.3578 42.2754C31.4742 42.1535 30.3925 41.3918 29.8898 40.5387L29.4785 39.8379V33.5766V27.3152L29.9355 26.5688C30.225 26.1117 30.682 25.6547 31.139 25.3652L31.8855 24.9082H38.1621H44.4386L45.1851 25.3652C45.6422 25.6547 46.0992 26.1117 46.3886 26.5688L46.8457 27.3152L46.9218 30.7125C46.998 33.7594 47.0285 34.125 47.2875 34.4145L47.5769 34.7344H60.4347C72.5613 34.7344 73.2773 34.7496 73.2773 34.9934C73.2773 35.4352 72.5918 38.3297 72.0738 40.0664C71.2359 42.9457 64.6547 62.6285 63.6797 65.2031C63.1617 66.5895 62.4761 68.2805 62.1562 68.9508C60.2976 72.9727 57.6925 74.7855 54.4172 74.3285C53.1832 74.1457 52.391 73.7344 51.4769 72.7898C50.0449 71.2969 49.0089 68.6613 47.5464 62.7199C46.5105 58.5609 45.9468 56.809 45.1242 55.2246C44.3625 53.7926 43.0218 52.452 41.666 51.7816C40.6757 51.2941 40.5082 51.2637 39.0761 51.2637C37.7355 51.2637 37.4461 51.3094 36.6539 51.675C35.3132 52.3148 34.3535 53.0918 33.5918 54.1582C32.2968 55.9711 31.5504 58.043 30.3011 63.3141C29.0671 68.5852 27.9855 71.2664 26.4925 72.8203C25.6089 73.7344 24.8015 74.1457 23.5828 74.3285C21.4652 74.618 19.5914 73.9629 18.0832 72.3785C16.1332 70.3371 15.0972 67.8387 10.725 54.7828C9.29292 50.4867 8.42456 48.1254 8.21128 47.8816C7.72378 47.3789 6.84019 47.3941 6.41362 47.9273C6.23081 48.1559 6.0937 48.4758 6.0937 48.6586C6.0937 49.1461 11.2125 64.3957 12.2636 67.0312C14.1527 71.8148 15.4781 73.8563 17.7175 75.4254C19.1648 76.4461 20.7339 76.9336 22.5164 76.9336C26.9039 76.9184 29.7222 74.3133 31.5961 68.4785C31.8093 67.8082 32.3273 65.8277 32.7386 64.0605C33.9879 58.7285 34.78 56.6566 36.0293 55.316C37.3394 53.9145 39 53.5336 40.5996 54.2953C42.6867 55.2855 43.4941 57.0223 45.3984 64.5938C46.8761 70.4895 47.9882 73.0184 49.923 74.7855C51.5379 76.2785 53.2136 76.9336 55.4379 76.9336C60.13 76.9336 62.9789 74.1609 65.8277 66.8332C67.4578 62.6133 74.4199 41.407 75.1664 38.3906C77.1773 30.1945 77.2992 23.7352 75.5472 16.7273C74.3285 11.8219 72.8965 9.15586 70.0629 6.48985C66.5894 3.21445 62.141 1.37109 57.7382 1.37109C54.3714 1.37109 51.5379 2.30039 48.9023 4.28086C47.6379 5.2254 46.6933 6.20039 44.8195 8.40938C42.7781 10.8012 41.4527 11.4867 38.8476 11.502C37.4308 11.502 37.1566 11.4563 36.3644 11.0906C35.1457 10.5117 34.3535 9.82617 32.8453 8.01328C29.6765 4.18945 26.9648 2.33086 23.4152 1.58438C22.0441 1.29492 19.7285 1.18829 18.4793 1.37109Z"/>
</symbol><symbol id="childdent" viewBox="0 0 78 78">
<path d="M16.76 0.171265C11.4561 1.17854 6.57714 4.5466 3.79141 9.09505C2.42215 11.3142 0.974196 15.5794 0.36039 19.1363C-0.190462 22.3784 -0.0960302 28.7211 0.549253 32.7974C1.24175 37.1885 2.86283 43.2636 3.49237 43.8931C3.91732 44.3181 4.81442 44.1607 5.30231 43.5941C5.75873 43.059 5.743 42.9331 4.83016 39.7539C3.35073 34.686 2.65823 30.0117 2.65823 25.1957C2.65823 20.9305 3.06743 18.1133 4.13766 14.9183C5.96334 9.48853 10.5433 4.9558 16.036 3.14586C17.2637 2.73666 17.5627 2.70518 19.892 2.70518C22.2528 2.68944 22.4889 2.72092 23.6693 3.13012C25.6209 3.82262 26.9586 4.68825 28.6269 6.37228C30.3739 8.15074 31.995 9.99216 31.8848 10.1023C31.7904 10.2125 28.202 9.59869 26.7068 9.20523C26.0458 9.04784 25.3533 8.9062 25.1802 8.9062C24.2673 8.9062 23.8581 10.4014 24.5821 11.0781C24.8339 11.3142 25.7153 11.6132 27.3836 12.0382C31.1136 12.9825 32.4672 13.1871 35.8667 13.2658C38.5423 13.3287 39.1403 13.2973 40.4939 13.0297C43.4212 12.4159 44.9321 11.4244 47.4661 8.43404C49.5593 5.97881 50.6295 5.06597 52.6283 4.0587C55.6187 2.56353 59.6005 2.34319 62.9686 3.49211C67.0921 4.89285 70.7435 8.15074 72.8367 12.3372C74.505 15.6423 75.3549 20.0334 75.3706 25.1957C75.3706 28.7211 75.0873 31.4124 74.3476 35.111C73.6236 38.6994 73.5292 38.9669 69.3113 51.7152C63.5194 69.248 62.5909 71.5144 60.293 73.6076C58.7664 74.9926 57.0824 75.5435 54.9734 75.2917C53.0218 75.0713 51.6053 73.8909 50.4407 71.4829C49.4649 69.4841 49.0557 68.1621 47.828 63.2988C45.9394 55.7128 44.7275 53.478 41.7057 51.9828C40.7457 51.5106 40.5568 51.4791 39.0931 51.4791C37.7081 51.4791 37.4091 51.5264 36.5907 51.9041C33.2541 53.478 31.8219 56.0906 30.0277 63.9127C28.4538 70.8376 26.7698 74.0641 24.2831 74.9926C23.3545 75.3546 21.4659 75.4648 20.5058 75.2287C19.6402 75.0241 18.507 74.3474 17.6571 73.5447C15.5009 71.4987 14.2104 68.4296 9.18975 53.2891C7.89919 49.3859 6.89191 46.6159 6.70305 46.4113C5.97907 45.6086 4.54686 46.1752 4.54686 47.2455C4.54686 47.8278 10.1498 64.6366 11.3932 67.7686C13.392 72.8207 14.7297 74.851 17.2007 76.5665C19.6245 78.2348 23.1342 78.4709 25.8569 77.1488C27.5567 76.3147 29.288 74.3159 30.3267 72.0023C31.0822 70.334 31.7274 68.1778 32.5459 64.6996C33.8522 59.1911 34.6548 57.0506 35.9454 55.6656C36.9212 54.6269 37.7553 54.2334 38.9515 54.2334C40.1161 54.2334 41.0604 54.6426 41.9733 55.5397C43.2324 56.7516 43.8934 58.4986 45.483 64.7783C47.1828 71.4357 48.2687 73.9224 50.299 75.7796C51.9673 77.322 53.6986 77.9987 55.9964 77.9987C59.8523 77.9987 62.7168 75.9527 64.9517 71.5774C66.2737 68.9962 67.3911 65.9272 71.373 53.9973C76.2205 39.4076 76.6927 37.7551 77.6055 32.042C77.9203 30.0432 77.9675 29.1933 77.9675 25.2744C77.9518 20.4583 77.8416 19.4039 77.0074 16.083C75.3391 9.52 71.436 4.45216 66.0219 1.82381C63.6139 0.643417 61.9141 0.234215 59.1599 0.139786C55.6659 0.0296173 53.2893 0.611946 50.3462 2.35893C48.6307 3.3662 47.1356 4.70398 45.3728 6.79722C42.9491 9.67738 41.6585 10.3856 38.857 10.3856C37.3776 10.4014 37.1101 10.3541 36.2916 9.97642C35.0168 9.37835 34.4502 8.87472 32.4829 6.59261C29.3352 2.95699 26.9272 1.33592 23.1971 0.328651C21.8436 -0.0333405 18.3339 -0.11203 16.76 0.171265Z"/>
<path d="M22.0797 18.7901C21.0881 19.1678 20.5216 19.5141 19.7818 20.2223C19.0421 20.8991 18.9792 21.5601 19.5772 22.1267C20.1124 22.6303 20.7576 22.5988 21.4187 22.048C23.024 20.6945 25.2274 20.6787 26.817 22.0008C27.478 22.5674 27.903 22.6618 28.4381 22.3785C28.9575 22.111 29.0991 21.8434 29.0991 21.1509C29.0991 20.5371 28.2807 19.7659 26.9114 19.0891C26.0301 18.6485 25.7153 18.5855 24.3933 18.554C23.2129 18.5068 22.7092 18.5698 22.0797 18.7901Z"/>
<path d="M50.3147 18.8373C49.4019 19.0419 47.9697 19.8288 47.3244 20.4583C46.6319 21.1351 46.5532 21.7017 47.0568 22.347C47.529 22.945 48.2215 22.8978 49.1029 22.2053C50.8026 20.8833 52.77 20.8833 54.4225 22.2053C55.2567 22.8663 55.8547 22.9136 56.4056 22.3627C56.9879 21.7961 56.925 21.1666 56.2167 20.4583C54.7688 19.0733 52.2663 18.3808 50.3147 18.8373Z"/>
<path d="M27.1318 29.8229C25.6524 30.4839 24.8969 32.1207 25.07 34.2612C25.5579 40.1789 29.6185 44.932 35.5205 46.4744C37.5822 47.0095 40.1948 47.0409 42.2094 46.553C47.6707 45.2153 51.8729 40.6983 52.8487 35.1268C53.2736 32.7975 52.8644 31.9319 51.4165 32.0263C50.8814 32.0578 50.5036 32.6873 50.5036 33.49C50.5036 34.4973 50.0944 36.4803 49.6695 37.4719C48.6622 39.8956 46.6477 42.0046 44.3026 43.1378C42.3668 44.0506 41.029 44.3654 39.0931 44.3654C32.9393 44.3182 28.1391 39.9271 27.5882 33.852C27.4938 32.829 27.5253 32.6716 27.8243 32.3726C28.265 31.9319 28.6112 31.9476 30.2323 32.5142C36.0713 34.4973 41.0762 34.576 46.931 32.7975C48.2058 32.4198 48.615 32.0735 48.615 31.3968C48.615 30.1377 47.954 29.8386 46.2385 30.3895C43.0907 31.381 40.0689 31.7273 37.0471 31.4282C34.5919 31.1922 33.2541 30.8931 31.0192 30.1377C28.9889 29.4609 28.0918 29.3822 27.1318 29.8229Z"/>
</symbol><symbol id="clock" viewBox="0 0 16 16">
  <path d="M8 3.5a.5.5 0 0 0-1 0V9a.5.5 0 0 0 .252.434l3.5 2a.5.5 0 0 0 .496-.868L8 8.71V3.5z"/>
  <path d="M8 16A8 8 0 1 0 8 0a8 8 0 0 0 0 16zm7-8A7 7 0 1 1 1 8a7 7 0 0 1 14 0z"/>
</symbol><symbol id="clouds-fill" viewBox="0 0 16 16">
  <path d="M11.473 9a4.5 4.5 0 0 0-8.72-.99A3 3 0 0 0 3 14h8.5a2.5 2.5 0 1 0-.027-5z"/>
  <path d="M14.544 9.772a3.506 3.506 0 0 0-2.225-1.676 5.502 5.502 0 0 0-6.337-4.002 4.002 4.002 0 0 1 7.392.91 2.5 2.5 0 0 1 1.17 4.769z"/>
</symbol><symbol id="coin" viewBox="0 0 16 16">
  <path d="M5.5 9.511c.076.954.83 1.697 2.182 1.785V12h.6v-.709c1.4-.098 2.218-.846 2.218-1.932 0-.987-.626-1.496-1.745-1.76l-.473-.112V5.57c.6.068.982.396 1.074.85h1.052c-.076-.919-.864-1.638-2.126-1.716V4h-.6v.719c-1.195.117-2.01.836-2.01 1.853 0 .9.606 1.472 1.613 1.707l.397.098v2.034c-.615-.093-1.022-.43-1.114-.9H5.5zm2.177-2.166c-.59-.137-.91-.416-.91-.836 0-.47.345-.822.915-.925v1.76h-.005zm.692 1.193c.717.166 1.048.435 1.048.91 0 .542-.412.914-1.135.982V8.518l.087.02z"/>
  <path d="M8 15A7 7 0 1 1 8 1a7 7 0 0 1 0 14zm0 1A8 8 0 1 0 8 0a8 8 0 0 0 0 16z"/>
  <path d="M8 13.5a5.5 5.5 0 1 1 0-11 5.5 5.5 0 0 1 0 11zm0 .5A6 6 0 1 0 8 2a6 6 0 0 0 0 12z"/>
</symbol><symbol id="dental" viewBox="0 0 86 86">
<path d="M18.9804 1.49492C11.6402 3.12421 5.74447 8.76797 3.10736 16.6625C0.873379 23.3644 0.789394 31.4437 2.87221 40.9004C3.69525 44.6293 4.78705 46.4937 6.95385 47.9047C9.01986 49.2316 6.36596 49.1141 37.373 49.2148L65.0878 49.2988V51.6504C65.0878 53.8508 65.0542 54.0523 64.6679 54.7578C64.3824 55.2449 63.9792 55.648 63.4921 55.9336L62.7363 56.3535H43.0839C23.482 56.3535 23.4316 56.3535 22.7597 56.0008C21.8191 55.5137 21.1808 54.5395 21.0464 53.4309C20.9121 52.3055 20.5593 51.9023 19.6691 51.9023C19.1484 51.9023 18.93 52.0031 18.6445 52.3727C18.3253 52.759 18.2917 52.9605 18.3757 53.7332C18.6277 55.8832 20.1394 57.8652 22.1382 58.6379C23.0117 58.9738 23.4652 59.0242 26.9253 59.0914L30.7382 59.1586V60.9055V62.6523H29.5624C28.521 62.6523 28.3195 62.7027 27.9667 63.0723C27.4124 63.6098 27.4124 64.3824 27.9667 64.9199C28.3195 65.2895 28.521 65.3398 29.5624 65.3398H30.7382V67.1707V69.0016L29.4953 69.0687C27.9835 69.1359 27.5468 69.4383 27.5468 70.3621C27.5636 71.4203 27.866 71.6219 29.4953 71.7227L30.9398 71.8066L31.3093 72.9824C32.3675 76.3082 35.2398 80.1043 38.8175 82.8926C42.7648 85.9832 45.9226 85.2945 50.2394 80.4234C52.6245 77.7023 53.9179 75.6363 54.7745 73.1672L55.2449 71.8066L56.4374 71.7227C57.8148 71.6219 58.1171 71.3867 58.1171 70.3789C58.1171 69.5055 57.6636 69.1527 56.4374 69.0687L55.4296 69.0016V67.1707V65.3398H56.3702C57.4956 65.3398 57.8316 65.1719 58.1171 64.5C58.3859 63.8617 58.1171 63.1227 57.5124 62.8371C57.2101 62.7027 53.6995 62.6523 45.2675 62.6523H33.4257V60.8887V59.1418L48.2574 59.0914L63.0722 59.041L64.08 58.6379C65.4574 58.0836 66.8347 56.7062 67.3554 55.3457C67.6745 54.5059 67.7417 53.9012 67.8257 51.7848L67.9097 49.2148H71.8906C77.2656 49.2148 78.6429 48.9125 80.3394 47.3672C81.7839 46.0402 82.4222 44.6125 83.2956 40.7324C85.7816 29.7137 85.1097 20.0723 81.3304 12.6984C78.391 6.9371 73.3351 3.14101 67.0363 1.94843C65.4406 1.64609 62.5851 1.5957 60.9726 1.84765C56.9749 2.46914 53.4476 4.58554 50.4242 8.18008C48.6437 10.2965 47.3671 11.3715 45.7546 12.1273C44.6964 12.6312 44.4613 12.6816 42.9999 12.6816C41.5722 12.6816 41.2867 12.6312 40.3124 12.1609C38.7335 11.4051 37.7089 10.5148 35.8277 8.28085C33.1402 5.10625 31.5445 3.77929 28.9578 2.58672C26.9085 1.6293 25.4304 1.31015 22.7597 1.24297C20.8953 1.19257 20.1058 1.24297 18.9804 1.49492ZM26.0015 4.35039C28.5882 5.10625 31.1581 6.81953 32.8378 8.93594C33.3081 9.50703 34.1144 10.4644 34.6687 11.0355L35.6429 12.077L35.0046 11.9762C34.6351 11.9258 33.7113 11.6906 32.9218 11.4555C30.9902 10.9012 30.8054 10.8676 30.3183 10.9852C29.7472 11.1363 29.3273 12.0602 29.5624 12.6648C29.7808 13.2359 30.2511 13.5047 31.914 14.0086C36.1132 15.2684 42.1769 15.8227 45.0324 15.218C47.2663 14.7477 49.3827 13.3535 51.432 11.0355C55.3456 6.60117 58.1339 4.88789 62.266 4.35039C66.9691 3.7625 72.4281 5.92929 76.1066 9.87656C82.0359 16.209 83.6484 27.8828 80.4402 41.1523C79.6507 44.4613 78.8445 45.5531 76.7449 46.2082C75.7538 46.5105 74.7124 46.5273 42.9831 46.5273C10.3468 46.5273 10.2628 46.5273 9.339 46.1746C8.21361 45.7547 7.07143 44.6965 6.46674 43.5039C5.5765 41.7402 4.5183 36.0293 4.16557 31.1918C3.81283 26.2367 4.41752 21.1305 5.81166 17.116C8.18002 10.2629 13.3535 5.44218 19.7531 4.11523C21.3656 3.77929 24.4058 3.89687 26.0015 4.35039ZM52.7421 67.1875V69.0352H43.0839H33.4257V67.1875V65.3398H43.0839H52.7421V67.1875ZM52.3054 72.0922C51.8687 73.5535 50.4242 76.073 49.1476 77.6016C47.8374 79.1805 45.805 81.0953 44.9652 81.5656C44.2765 81.952 43.8902 82.0527 43.0839 82.0359C41.4714 82.0359 40.4132 81.3305 38.0113 78.6262C35.9956 76.3754 34.4167 73.9062 33.8624 72.0922L33.7449 71.7227H43.0839H52.423L52.3054 72.0922Z"/>
</symbol><symbol id="laserdent" viewBox="0 0 104 104">
<path d="M30.1032 2.03124C29.8594 2.25468 29.6157 2.66093 29.5344 2.925C29.4735 3.16874 29.4532 6.03281 29.4938 9.26249L29.5547 15.1328L30.1235 16.2906C31.1188 18.3016 32.9063 19.5 35.2016 19.6625L36.5625 19.7641V22.75C36.5625 26.4469 36.8063 27.2797 38.2688 28.7625C39.5891 30.0828 40.7063 30.4688 43.1032 30.4688H44.8907V33.7391V36.9891L44.4438 36.8672C43.0829 36.4609 41.7422 35.4656 39.4469 33.15C35.9328 29.6359 33.6579 28.2547 30.225 27.5437C22.2625 25.8984 13.4266 31.0781 9.42504 39.7109C6.50004 46.0687 6.35785 55.6969 9.07973 65.4062C9.60785 67.3156 16.0469 85.8203 17.6313 89.9844C19.6829 95.4078 21.0235 97.8047 23.0344 99.6938C26.1625 102.619 30.3063 103.208 33.9219 101.238C35.2422 100.527 37.0094 98.6375 37.761 97.1344C38.8375 94.9813 40.625 89.3547 40.625 88.1156C40.625 87.3234 39.8125 86.5313 39 86.5313C38.1875 86.5313 37.6594 87.1 37.2938 88.4C36.1563 92.5641 35.8516 93.4984 35.161 94.9609C33.8 97.8859 32.4797 98.9219 29.961 99.0844C27.1985 99.2469 24.9641 97.825 23.2985 94.8391C22.2422 92.9703 20.4954 88.5219 17.7532 80.7422C13.7313 69.3672 12.025 64.1875 11.4969 61.75C9.6891 53.5438 10.0547 46.0281 12.5125 40.8484C14.8079 35.9531 19.4797 32.2359 24.6188 31.2C27.6657 30.5703 30.2657 30.9156 33.1094 32.3172C34.5922 33.0484 35.1407 33.4953 37.0094 35.425C38.2282 36.6437 39.2032 37.7203 39.2032 37.8016C39.2032 37.9844 37.1719 37.6391 34.8969 37.0703C33.8204 36.7859 32.825 36.5625 32.7032 36.5625C32.236 36.5625 31.4844 37.5578 31.4844 38.1875C31.4844 39.2031 31.8094 39.5484 33.15 39.9953C37.9032 41.5594 44.5453 41.9656 48.5266 40.9297C51.411 40.1781 52.1016 39.6703 57.0985 34.3891C59.4547 31.8906 61.8313 30.875 65.325 30.875C68.4125 30.875 71.561 31.9109 74.5875 33.9422C76.2328 35.0391 78.9141 37.8016 79.8078 39.2641C82.0625 43.0625 83.1391 48.7906 82.6719 54.5594C82.1641 61.0391 81.6157 63.0094 75.9688 79.0156C71.2969 92.2797 70.2203 94.8188 68.4328 96.7688C66.8891 98.4547 65.711 99.0031 63.6797 99.0234C61.75 99.0234 60.8563 98.6578 59.5969 97.3781C57.9719 95.6922 56.8953 93.1125 55.25 86.9375C54.6813 84.7844 53.9907 82.4891 53.7266 81.8188C52.3047 78.3047 49.2375 76.1922 45.9266 76.4156C44.261 76.5375 42.961 77.1063 41.7422 78.2234C39.3453 80.4375 39.1016 82.875 41.275 82.875C42.0875 82.875 42.3719 82.6719 43.4485 81.25C45.3172 78.7719 48.9328 79.4016 50.4766 82.4891C50.9844 83.4844 51.5735 85.4141 52.9953 90.7156C54.6 96.6672 56.3063 99.6734 58.9875 101.258C61.425 102.7 65.3657 102.72 68.0875 101.339C69.1032 100.831 70.9313 99.1453 71.7235 97.9875C72.536 96.8094 73.9578 93.9047 74.9532 91.4266C76.1922 88.2984 83.1391 68.4734 83.85 66.0156C86.3891 57.3016 86.6938 49.3594 84.7641 42.6562C83.0985 36.8469 78.9547 32.0328 73.2672 29.3516C68.2297 26.9547 63.3141 26.8125 59.0078 28.9453C56.7125 30.0828 55.1891 31.3016 53.5235 33.4344C52.7922 34.3484 51.8782 35.3438 51.4922 35.6281C50.7203 36.2172 48.811 37.1719 48.3844 37.1719C48.1813 37.1719 48.1407 36.4406 48.1813 33.8609L48.2422 30.5703L50.375 30.4688C52.7922 30.3469 53.625 30.0219 54.8641 28.7016C56.3266 27.1781 56.55 26.4875 56.6313 22.9328L56.7125 19.7641L57.9922 19.6422C60.3485 19.4594 62.4 17.9766 63.1719 15.9047C63.5375 14.9297 63.5782 14.3203 63.5782 9.85155V4.87499H78.1625C91.0203 4.87499 92.7875 4.91562 93.1938 5.19999C93.6204 5.48437 93.6407 5.66718 93.6407 7.8203C93.6407 9.97343 93.6204 10.1562 93.1938 10.4406C92.7875 10.725 91.2032 10.7656 80.1125 10.7656C67.661 10.7656 67.4782 10.7656 66.95 11.1922C66.1985 11.7812 66.1985 13 66.95 13.5891C67.4782 14.0156 67.6407 14.0156 80.2141 14.0156C88.5422 14.0156 93.1938 13.9344 93.7016 13.7922C94.6969 13.5281 96.0375 12.3094 96.5047 11.2734C97.0532 10.0953 97.0532 5.5453 96.5047 4.36718C96.0375 3.33125 94.6969 2.1125 93.7016 1.84843C93.1735 1.68593 84.1344 1.62499 65.2438 1.62499H37.5578L37.0704 2.1328C36.7453 2.43749 36.5625 2.86405 36.5625 3.24999C36.5625 3.63593 36.7453 4.06249 37.0704 4.36718L37.5578 4.87499H48.9532H60.3282V9.64843C60.3282 14.95 60.2469 15.3156 59.0485 16.0469C58.4188 16.4328 57.9516 16.4531 46.6172 16.4531C35.5875 16.4531 34.775 16.4328 34.1453 16.0875C32.7641 15.3359 32.7032 15.0312 32.7032 8.47031V2.62031L32.1954 2.1328C31.586 1.50312 30.7125 1.4828 30.1032 2.03124ZM53.4219 22.3438C53.4219 25.2687 53.2188 26.0609 52.3047 26.7719C51.7563 27.1984 51.5735 27.2188 46.6782 27.2188C42.3516 27.2188 41.5188 27.1781 41.0313 26.8937C39.975 26.2438 39.8125 25.7156 39.8125 22.5672V19.7031H46.6172H53.4219V22.3438Z"/>
</symbol><symbol id="play" viewBox="0 0 111 107">
<ellipse cx="55.6411" cy="53.3951" rx="55.2768" ry="53.3951" fill-opacity="0.17"/>
<ellipse cx="55.6413" cy="53.3951" rx="46.7727" ry="45.1805" fill-opacity="0.42"/>
<path d="M55.9601 16.7374C34.827 16.7374 17.6916 33.2895 17.6916 53.7032C17.6916 74.1169 34.827 90.6691 55.9601 90.6691C77.0933 90.6691 94.2287 74.1169 94.2287 53.7032C94.2287 33.2895 77.0933 16.7374 55.9601 16.7374ZM68.2693 54.2725L49.6134 67.3839C49.5111 67.4549 49.3905 67.4972 49.2649 67.5064C49.1393 67.5155 49.0136 67.491 48.9015 67.4356C48.7894 67.3801 48.6952 67.2959 48.6294 67.1922C48.5636 67.0884 48.5287 66.9692 48.5285 66.8475V40.6414C48.5281 40.5195 48.5626 40.3999 48.6283 40.2958C48.694 40.1917 48.7882 40.1072 48.9005 40.0516C49.0129 39.9961 49.1389 39.9717 49.2648 39.9811C49.3906 39.9905 49.5112 40.0334 49.6134 40.1051L68.2693 53.2081C68.3574 53.2683 68.4293 53.3481 68.4789 53.4407C68.5286 53.5333 68.5545 53.6361 68.5545 53.7403C68.5545 53.8446 68.5286 53.9474 68.4789 54.04C68.4293 54.1326 68.3574 54.2123 68.2693 54.2725Z" fill="white"/>
</symbol><symbol id="services" viewBox="0 0 47 46">
<circle cx="23.5" cy="23" r="22.5" stroke="url(#paint0_linear_421_227)" stroke-opacity="0.5"/>
<path d="M29.6035 23.3536C29.7987 23.1583 29.7987 22.8417 29.6035 22.6464L26.4215 19.4645C26.2262 19.2692 25.9096 19.2692 25.7144 19.4645C25.5191 19.6597 25.5191 19.9763 25.7144 20.1716L28.5428 23L25.7144 25.8284C25.5191 26.0237 25.5191 26.3403 25.7144 26.5355C25.9096 26.7308 26.2262 26.7308 26.4215 26.5355L29.6035 23.3536ZM1.6499 23.5H29.2499V22.5H1.6499V23.5Z" fill="url(#paint1_linear_421_227)" fill-opacity="0.59"/>

</symbol><symbol id="surgery" viewBox="0 0 91 91">
<path d="M65.9928 1.68848C65.2463 2.22168 65.3885 3.83906 66.2061 4.15898C66.366 4.2123 67.9301 4.26562 69.6896 4.26562H72.8711V13.6678V23.0699L67.859 23.141C63.1846 23.1943 62.7758 23.2299 61.9937 23.5854C60.8207 24.1186 59.6477 25.2561 59.1678 26.358C58.7945 27.1756 58.7412 27.5488 58.7412 29.6816C58.7412 31.9566 58.7768 32.1344 59.2389 33.0941C59.7721 34.1783 60.5541 34.9604 61.7271 35.5824C62.4736 35.9912 62.4914 35.9912 72.3912 36.0445L82.291 36.0979V46.0154C82.291 55.3109 82.2732 56.0219 81.9355 57.3371C81.4912 59.0967 80.1049 61.9227 78.9496 63.4689C76.8168 66.2772 74.7906 67.3436 72.9955 66.5793C70.5428 65.5484 67.3791 61.0162 66.4727 57.2305C66.1527 55.8264 66.1172 55.1332 66.1172 47.6684V39.617L65.6729 39.1904C65.4062 38.9061 65.033 38.7461 64.6953 38.7461C64.3576 38.7461 63.9844 38.9061 63.7178 39.1904L63.2734 39.617V47.8461C63.2734 55.1865 63.309 56.2529 63.6111 57.6748C64.3576 61.265 65.9395 64.1977 68.4988 66.7393C69.8318 68.0723 70.365 68.4633 71.4848 68.9609L72.8711 69.583V77.8832V86.1834L73.3332 86.5389C74.133 87.1787 75.1994 86.8943 75.5371 85.9701C75.6437 85.6324 75.7148 82.5754 75.7148 77.4922V69.5475L77.0834 68.8543C78.683 68.0545 80.9047 65.975 82.0244 64.251C83.0553 62.6869 83.9973 60.6785 84.5482 58.8834L85.0459 57.3193L85.1348 46.6908L85.2236 36.0623L86.1123 35.7602C87.8186 35.1736 88.9916 33.9828 89.4893 32.2943C89.8625 31.0324 89.8447 28.0287 89.4537 26.8379C89.0627 25.5938 87.7475 24.1719 86.5211 23.6209C85.6146 23.2299 85.3658 23.1943 80.6559 23.141L75.7148 23.0699V13.6678V4.26562H78.8963C81.7578 4.26562 82.1133 4.23008 82.4865 3.92793C82.8064 3.6791 82.9131 3.4125 82.9131 2.84375C82.9131 2.275 82.8064 2.0084 82.4865 1.75957C82.0955 1.43964 81.6689 1.42188 74.2219 1.42188C67.5391 1.42188 66.3127 1.45742 65.9928 1.68848ZM85.668 26.3936C86.6277 26.9623 86.9121 27.7088 86.9121 29.6461C86.9121 30.9258 86.841 31.4412 86.5566 31.9744C85.899 33.2719 86.3078 33.2363 74.1508 33.2363H63.3268L62.7225 32.8275C61.7982 32.2055 61.4961 31.4412 61.4961 29.6816C61.5139 27.3889 62.0115 26.4824 63.54 26.1092C63.8422 26.0381 68.801 25.9848 74.5596 26.0025C84.7615 26.0381 85.0637 26.0559 85.668 26.3936Z"/>
<path d="M53.3203 15.1074C50.3166 15.9072 48.0949 17.4535 45.7133 20.4039C43.1717 23.5498 41.3232 24.8473 39.1549 25.025C36.951 25.2027 35.0314 24.1363 32.9164 21.6125C31.0502 19.373 29.5394 17.9156 28.3486 17.1514C22.6434 13.49 14.5742 14.3965 8.79785 19.3375C5.77637 21.9146 3.6791 25.5582 2.39941 30.4281C1.01308 35.7246 1.01308 42.3896 2.41719 49.1791C3.11035 52.5738 3.66133 54.4223 7.57148 66.2061C12.7613 81.8111 13.8633 84.4949 16.1738 86.9654C18.1822 89.116 19.9773 89.8447 22.9988 89.7203C24.5984 89.667 24.9184 89.5959 26.0025 89.0627C28.2953 87.9252 30.126 85.4369 31.4412 81.7045C31.7434 80.8514 32.3832 78.5586 32.8809 76.6035C34.2672 71.2004 34.8893 69.5475 36.1156 68.1434C38.0707 65.9217 40.95 66.5971 42.5141 69.6186C43.3316 71.2004 43.7404 72.4801 44.6113 76.248C45.8555 81.5978 46.993 84.4949 48.7703 86.7521C49.6768 87.9074 51.383 89.116 52.6627 89.4893C53.9957 89.8803 56.5728 89.8447 57.9947 89.4004C61.6383 88.2807 63.6822 84.957 67.3435 74.2396C68.0367 72.1957 68.6055 70.365 68.6055 70.1873C68.6055 69.9918 68.41 69.6363 68.1611 69.4053C67.5746 68.801 66.6326 68.801 66.1527 69.4053C65.9572 69.6363 65.2463 71.5203 64.5531 73.5643C62.1359 80.6559 60.643 83.8728 59.0078 85.4902C57.8525 86.6633 57.1594 86.9121 55.1687 86.9121C53.4447 86.9121 52.6627 86.5744 51.4896 85.4191C49.7656 83.6951 48.8414 81.4557 47.384 75.466C45.6422 68.3744 44.3803 66.0105 41.5898 64.642C40.559 64.1266 40.2746 64.0732 38.835 64.0732C37.3775 64.0732 37.1109 64.1266 36.0445 64.6598C33.2896 66.0105 32.0633 68.3389 30.126 75.8926C28.6152 81.7223 27.5488 84.1572 25.807 85.6857C24.7051 86.6633 23.7809 86.9654 22.2346 86.8766C19.0176 86.681 17.2758 84.7615 14.8941 78.7363C13.6145 75.5549 6.71836 54.7422 5.97187 51.8984C4.56777 46.4953 4.17676 43.225 4.31894 38.0707C4.42558 34.125 4.67441 32.4543 5.6164 29.6283C6.57617 26.7135 8.12246 24.243 10.202 22.2523C11.8016 20.7416 12.7436 20.084 14.6098 19.1953C17.4891 17.8268 20.4572 17.4357 23.0521 18.0934C25.967 18.8398 27.7266 19.9951 30.126 22.7855L31.69 24.5807L30.7303 24.4562C30.1971 24.3852 28.9707 24.1541 27.9932 23.9408C27.0156 23.7275 25.9492 23.5676 25.6115 23.5676C24.4562 23.5854 23.923 25.0072 24.7584 25.8426C25.6826 26.7668 33.1652 27.9043 38.3906 27.9043C42.0164 27.9043 44.2381 26.6602 47.384 22.8211C49.2857 20.5283 50.4055 19.5152 51.9873 18.751C53.7113 17.8979 55.0621 17.5957 57.0705 17.5957C59.8965 17.5957 62.9713 18.6266 65.5662 20.4395C66.5793 21.1504 67.2547 21.3103 67.8945 20.9727C68.3389 20.7238 68.6232 19.8174 68.4277 19.2842C68.0723 18.36 64.1799 16.2449 61.2295 15.3562C58.99 14.6986 55.2932 14.5742 53.3203 15.1074Z"/>
</symbol><symbol id="whitening" viewBox="0 0 92 92">
<path d="M73.7258 2.17422C71.8751 3.09063 70.6532 5.51641 69.8985 9.82891L69.6649 11.1227L68.7844 11.2305C64.8493 11.7695 61.8844 13.1891 60.8063 15.0219C60.1594 16.1359 60.2313 17.7531 60.986 18.8492C62.1719 20.5563 64.454 21.5625 69.036 22.3531L69.6829 22.4789L69.8985 23.7727C70.204 25.5156 70.8868 27.8695 71.4079 28.9117C71.9829 30.0078 73.3305 31.4992 74.1032 31.8766C75.2352 32.4156 76.4751 32.2359 77.3915 31.3914C77.6251 31.1938 77.8407 31.068 77.8946 31.1039C78.0204 31.2477 78.3438 35.0391 78.3438 36.5844C78.3438 37.393 78.2899 38.6508 78.236 39.4055L78.1102 40.7891H77.1579C73.7438 40.7891 70.8149 44.2211 71.2282 47.7789C71.4618 49.8633 72.8454 51.768 74.8579 52.7563C75.7743 53.2055 76.1157 53.2773 77.4454 53.2773C78.7211 53.2773 79.1344 53.2055 79.979 52.8102C81.3446 52.1633 82.2969 51.2648 83.0336 49.9172C83.6086 48.857 83.6446 48.6773 83.6446 47.0781C83.6446 45.5688 83.5907 45.2453 83.1415 44.3648C82.8719 43.8078 82.2969 43.0172 81.8657 42.6219L81.0751 41.8852V37.7883C81.093 33.7094 80.8415 30.7625 80.2665 28.2648C80.1047 27.582 80.0688 27.025 80.1766 26.6836C80.2665 26.3781 80.5 25.3359 80.6977 24.3477C80.9133 23.3594 81.093 22.5328 81.111 22.5148C81.129 22.4969 82.0094 22.2992 83.0516 22.1016C88.0829 21.1313 90.3829 19.4781 90.3829 16.8727C90.3829 14.4469 88.4422 12.7578 84.5071 11.7875C83.5368 11.5359 82.3688 11.2844 81.9196 11.2305L81.093 11.1047L80.7696 9.46953C80.1766 6.37891 79.5297 4.67188 78.4157 3.28828C77.2477 1.85078 75.3071 1.38359 73.7258 2.17422ZM75.9719 4.95938C76.8165 5.55235 77.7329 7.99609 78.254 11.0508C78.6133 13.225 78.8649 13.5844 80.1946 13.7461C81.5961 13.9258 84.2555 14.5547 85.2618 14.95C86.268 15.3453 87.2383 16.0281 87.5079 16.5133C88.0649 17.5555 84.6508 19.1906 80.9493 19.6758C79.6555 19.8375 78.9008 20.107 78.7211 20.4484C78.6313 20.6281 78.4336 21.5266 78.2719 22.4609C77.5352 26.7555 76.0977 29.5586 74.9477 28.9477C74.1211 28.4984 72.8813 25.1742 72.4141 22.1555C72.1266 20.2328 71.893 20.0172 69.7907 19.6758C67.8141 19.3523 65.7836 18.7953 64.7954 18.3102C63.9508 17.8789 63.0704 17.1063 63.0704 16.7828C63.0704 16.4414 64.2922 15.4531 65.2086 15.0578C66.143 14.6625 69.1438 13.9258 70.5633 13.7461C71.8211 13.5844 72.1446 13.1891 72.3961 11.5C72.8813 8.3375 73.7977 5.75 74.6602 5.06719C75.2532 4.6 75.4329 4.58203 75.9719 4.95938ZM79.0266 44.0414C80.0149 44.5266 80.6977 45.5508 80.8235 46.7008C80.9313 47.8328 80.6258 48.6953 79.8711 49.432C78.1102 51.157 75.3969 50.6539 74.3727 48.4258C73.9594 47.5453 73.9415 46.7367 74.3188 45.8563C75.1274 43.9156 77.1399 43.143 79.0266 44.0414Z"/>
<path d="M18.8133 10.9609C14.0157 11.7695 9.05629 15.0219 6.14536 19.2805C4.38442 21.832 2.92895 25.4797 2.17426 29.2172C0.844575 35.7758 1.38364 43.8617 3.70161 52.0195C4.34848 54.3555 11.3563 75.4328 12.5243 78.6133C13.7282 81.8836 14.968 84.5789 15.9563 85.9984C17.6094 88.4422 20.161 90.1492 22.7485 90.5805C23.8446 90.7602 24.2399 90.7422 25.4079 90.4727C27.7079 89.9695 29.4149 88.9094 30.7985 87.1484C32.5235 84.9203 33.4579 82.6203 34.8594 77.1039C36.4407 70.8508 37.0875 69.1617 38.5071 67.6164C39.7829 66.2148 40.8071 65.9273 42.3524 66.5203C43.6821 67.0055 45.0297 68.3352 45.7844 69.8984C46.4313 71.2281 46.9344 73.025 47.8868 77.2656C48.2461 78.9008 48.7852 80.9492 49.0907 81.8477C51.2469 88.2625 55.1641 91.3891 60.0336 90.5805C64.2383 89.8977 66.8079 87.1305 69.4493 80.4102C70.6711 77.3016 76.5469 59.6742 76.5469 59.0992C76.5469 58.093 75.0376 57.5 74.2469 58.1648C73.9954 58.3984 72.9711 61.2195 70.9227 67.3828C66.3047 81.2547 65.011 84.2914 62.8547 86.1602C61.0758 87.7055 58.9555 88.1727 56.7633 87.5078C55.7032 87.1844 55.3079 86.9688 54.5352 86.1781C52.8641 84.525 52.1274 82.6922 50.6899 76.7266C49.3243 71.0664 48.2461 68.3531 46.4493 66.0891C44.904 64.1125 42.5141 63.0164 40.6993 63.4477C38.3633 63.9867 36.5485 65.2805 35.2188 67.3109C34.0149 69.1617 33.4399 70.743 32.254 75.5406C31.6969 77.8047 31.0321 80.2305 30.7805 80.9313C29.6305 84.1656 27.8875 86.5734 26.1086 87.3641C25.4797 87.6516 24.8868 87.7594 23.8985 87.7594C22.7125 87.7773 22.3711 87.6875 21.329 87.1844C19.1008 86.0703 17.6094 83.8422 15.543 78.4516C14.0516 74.5164 6.75629 52.4328 6.03754 49.5938C2.55161 35.9555 4.47426 24.0781 11.1407 17.9328C14.1415 15.1477 17.6633 13.8359 22.0477 13.8359C25.8571 13.8359 27.9594 14.6625 30.2055 17.0523C32.4336 19.3883 33.9969 21.2031 33.7993 21.2031C33.7094 21.2031 32.5235 21.0055 31.1579 20.7539C29.8102 20.5023 28.5524 20.3406 28.3727 20.3945C27.9055 20.5563 27.3125 21.3469 27.3125 21.85C27.3125 22.0656 27.4922 22.4609 27.7258 22.7125C28.0852 23.1078 28.4805 23.2336 31.4454 23.7188C35.4704 24.3836 38.8844 24.7969 40.3399 24.7969C42.1188 24.7789 44.1672 24.3297 45.5868 23.6289C47.168 22.8562 48.4079 21.7422 50.3844 19.3344C52.8641 16.3336 54.104 15.3094 56.2602 14.4648C56.8711 14.2133 57.4641 13.8898 57.6079 13.7102C57.9672 13.243 57.9133 12.5062 57.4821 11.9672C56.943 11.2844 56.0985 11.3383 54.2657 12.2187C52.1813 13.243 50.7797 14.4109 48.4438 17.1422C44.9219 21.2391 44.311 21.6344 41.5977 21.6523C39.9086 21.6523 39.711 21.6164 38.543 21.0414C37.5727 20.5563 36.9618 20.0711 35.8477 18.9031C31.2297 13.9977 29.9 12.9195 27.1329 11.8055C24.779 10.8891 21.3829 10.5297 18.8133 10.9609Z"/>
<path d="M54.7149 28.4984C53.3672 29.1992 52.9719 29.9719 52.2172 33.2781C52.1274 33.7094 51.9836 33.7813 50.6539 34.0688C47.9227 34.6617 46.4492 36.0094 46.593 37.7883C46.7367 39.4414 48.336 40.7172 50.8516 41.1664C51.9836 41.3641 52.1274 41.4359 52.2172 41.8492C52.2711 42.1008 52.4328 42.8195 52.5766 43.4305C53.2594 46.1078 55.0922 47.5633 56.8891 46.8086C58.4703 46.1617 59.0813 45.0656 59.7461 41.7594C59.818 41.4539 60.0516 41.3461 61.0938 41.1664C63.7711 40.6813 65.4961 39.3516 65.4961 37.7344C65.4961 36.0094 64.1485 34.8055 61.4352 34.1227C60.6086 33.907 59.8899 33.7094 59.8539 33.6734C59.818 33.6555 59.6742 33.0625 59.5485 32.3977C59.4047 31.7328 59.0813 30.7445 58.8297 30.2234C58.0031 28.5164 56.1524 27.7438 54.7149 28.4984ZM56.3141 31.6789C56.5656 32.0563 56.943 33.4938 57.2125 35.093C57.3742 35.9555 57.7875 36.225 59.4946 36.5484C61.9383 37.0156 62.8008 37.6086 61.6867 38.0758C61.3992 38.1836 60.4649 38.4352 59.5844 38.6148C58.668 38.8125 57.8414 39.1 57.6617 39.2977C57.4641 39.4773 57.2125 40.2141 57.0688 40.9688C56.5117 43.8078 55.9727 44.5086 55.4516 43.0891C55.0563 41.975 54.8047 40.9508 54.8047 40.3938C54.8047 39.4594 54.1578 39.0102 52.2891 38.5969C50.5641 38.2375 49.5938 37.8602 49.5938 37.5547C49.5938 37.3211 51.3906 36.6922 52.6664 36.4945C53.6008 36.3328 54.625 35.9195 54.625 35.6859C54.625 35.2727 55.2539 32.4875 55.4696 31.9664C55.793 31.1578 55.9547 31.1039 56.3141 31.6789Z"/>
</symbol></svg>