<svg width="91" height="91" xmlns="http://www.w3.org/2000/svg"><path d="M65.993 1.688c-.747.534-.605 2.151.213 2.471.16.053 1.724.107 3.484.107h3.181V23.07l-5.012.071c-4.674.053-5.083.089-5.865.444-1.173.534-2.346 1.671-2.826 2.773-.373.818-.427 1.19-.427 3.324 0 2.275.036 2.452.498 3.412.533 1.084 1.315 1.866 2.488 2.488.747.41.764.41 10.664.462l9.9.054v9.917c0 9.296-.018 10.007-.355 11.322-.445 1.76-1.831 4.586-2.986 6.132-2.133 2.808-4.16 3.875-5.954 3.11-2.453-1.03-5.617-5.563-6.523-9.348-.32-1.405-.356-2.098-.356-9.563v-8.051l-.444-.427a1.386 1.386 0 0 0-.978-.444c-.337 0-.71.16-.977.444l-.445.427v8.23c0 7.34.036 8.406.338 9.828.747 3.59 2.328 6.523 4.888 9.064 1.333 1.333 1.866 1.724 2.986 2.222l1.386.622v16.6l.462.356c.8.64 1.866.355 2.204-.569.107-.338.178-3.395.178-8.478v-7.945l1.368-.693c1.6-.8 3.822-2.879 4.941-4.603 1.031-1.564 1.973-3.573 2.524-5.368l.498-1.564.089-10.628.089-10.629.888-.302c1.707-.586 2.88-1.777 3.377-3.466.373-1.262.356-4.265-.035-5.456-.391-1.244-1.706-2.666-2.933-3.217-.906-.391-1.155-.427-5.865-.48l-4.941-.071V4.266h3.181c2.862 0 3.217-.036 3.59-.338.32-.249.427-.515.427-1.084 0-.569-.107-.836-.426-1.084-.391-.32-.818-.338-8.265-.338-6.683 0-7.91.035-8.23.266Zm19.675 24.706c.96.568 1.244 1.315 1.244 3.252 0 1.28-.071 1.795-.355 2.328-.658 1.298-.25 1.262-12.406 1.262H63.327l-.605-.408c-.924-.623-1.226-1.387-1.226-3.146.018-2.293.515-3.2 2.044-3.573.302-.07 5.261-.124 11.02-.107 10.201.036 10.504.054 11.108.392Z"/><path d="M53.32 15.107c-3.003.8-5.225 2.346-7.607 5.297-2.541 3.146-4.39 4.443-6.558 4.621-2.204.178-4.124-.889-6.239-3.412-1.866-2.24-3.377-3.697-4.567-4.462-5.706-3.661-13.775-2.755-19.551 2.186-3.022 2.578-5.119 6.221-6.399 11.091-1.386 5.297-1.386 11.962.018 18.751.693 3.395 1.244 5.243 5.154 17.027 5.19 15.605 6.292 18.289 8.603 20.76 2.008 2.15 3.803 2.879 6.825 2.754 1.6-.053 1.92-.124 3.004-.657 2.292-1.138 4.123-3.626 5.438-7.359.302-.853.942-3.145 1.44-5.1 1.386-5.404 2.008-7.056 3.235-8.46 1.955-2.222 4.834-1.547 6.398 1.475.818 1.581 1.226 2.861 2.097 6.629 1.245 5.35 2.382 8.247 4.16 10.504.906 1.155 2.612 2.364 3.892 2.737 1.333.391 3.91.356 5.332-.089 3.643-1.12 5.687-4.443 9.349-15.16.693-2.044 1.262-3.875 1.262-4.053 0-.195-.196-.55-.445-.782-.586-.604-1.528-.604-2.008 0-.196.231-.907 2.115-1.6 4.16-2.417 7.09-3.91 10.308-5.545 11.925-1.156 1.173-1.849 1.422-3.84 1.422-1.723 0-2.505-.338-3.678-1.493-1.724-1.724-2.649-3.963-4.106-9.953-1.742-7.092-3.004-9.456-5.794-10.824-1.031-.515-1.315-.569-2.755-.569-1.458 0-1.724.054-2.79.587-2.755 1.35-3.982 3.679-5.919 11.233-1.51 5.83-2.577 8.264-4.319 9.793-1.102.977-2.026 1.28-3.572 1.19-3.217-.195-4.96-2.115-7.34-8.14-1.28-3.181-8.177-23.994-8.923-26.838-1.404-5.403-1.795-8.673-1.653-13.827.107-3.946.355-5.617 1.297-8.443.96-2.915 2.506-5.385 4.586-7.376 1.6-1.51 2.542-2.168 4.408-3.057 2.88-1.368 5.847-1.76 8.442-1.102 2.915.747 4.675 1.902 7.074 4.692l1.564 1.796-.96-.125c-.533-.07-1.76-.302-2.737-.515-.977-.213-2.044-.373-2.381-.373-1.156.017-1.689 1.44-.854 2.275.925.924 8.407 2.061 13.633 2.061 3.625 0 5.847-1.244 8.993-5.083 1.902-2.293 3.022-3.306 4.603-4.07 1.724-.853 3.075-1.155 5.084-1.155 2.826 0 5.9 1.03 8.495 2.843 1.013.711 1.689.871 2.328.534.445-.25.73-1.156.534-1.689-.356-.924-4.248-3.04-7.198-3.928-2.24-.657-5.937-.782-7.91-.249Z"/></svg>