<svg width="19" height="19" fill="none" xmlns="http://www.w3.org/2000/svg"><path d="M9.024.003C7.499.021 4.22.272 2.387 1.954 1.024 3.305.547 5.304.492 7.774c-.047 2.462-.103 7.085 4.354 8.343v1.918s-.028.767.479.924c.624.198.98-.392 1.574-1.026l1.107-1.253c3.049.254 5.384-.33 5.653-.417.619-.198 4.104-.643 4.673-5.267.584-4.775-.284-7.783-1.852-9.144h-.01C15.997 1.416 14.095.03 9.846.015c0 0-.315-.021-.822-.013v.001Zm.052 1.342c.433-.002.696.016.696.016 3.596.01 5.313 1.092 5.718 1.456 1.32 1.132 2 3.844 1.502 7.83-.473 3.866-3.299 4.11-3.822 4.277-.223.072-2.28.579-4.87.412 0 0-1.93 2.329-2.534 2.928-.095.105-.207.136-.278.12-.102-.024-.133-.15-.127-.324l.018-3.182C1.6 13.833 1.823 9.89 1.863 7.83c.046-2.06.433-3.744 1.584-4.886 1.549-1.4 4.332-1.589 5.628-1.599h.001Zm.285 2.06a.236.236 0 0 0-.238.235c0 .133.108.238.238.238a4.461 4.461 0 0 1 3.191 1.259c.863.837 1.284 1.963 1.3 3.435 0 .13.105.238.238.238V8.8a.238.238 0 0 0 .238-.235 5.115 5.115 0 0 0-1.435-3.77c-.94-.918-2.131-1.391-3.532-1.391Zm-3.13.544a.743.743 0 0 0-.485.096h-.013c-.34.199-.645.45-.906.745-.217.25-.334.504-.365.748-.018.145-.006.29.037.43l.016.01c.244.717.563 1.407.952 2.056.502.913 1.12 1.757 1.837 2.511l.022.03.034.026.02.025.026.021c.757.72 1.603 1.34 2.517 1.846 1.045.569 1.68.838 2.06.95v.005c.112.034.213.05.315.05.325-.024.632-.156.873-.374a3.6 3.6 0 0 0 .736-.91v-.005c.182-.343.12-.668-.143-.888-.526-.46-1.096-.87-1.7-1.221-.406-.22-.817-.087-.984.136l-.356.448c-.182.223-.513.192-.513.192l-.01.006c-2.47-.631-3.13-3.133-3.13-3.133s-.03-.34.198-.514l.446-.358c.213-.174.361-.584.133-.99a10.683 10.683 0 0 0-1.219-1.701.677.677 0 0 0-.399-.238l.001.001Zm3.54.705c-.314 0-.314.477.004.477a2.984 2.984 0 0 1 2.096.909 2.767 2.767 0 0 1 .712 2.034.24.24 0 0 0 .238.236l.01.012a.24.24 0 0 0 .237-.238c.022-.944-.271-1.735-.847-2.37-.578-.633-1.385-.989-2.415-1.06h-.034Zm.391 1.28c-.325-.009-.337.477-.015.486.782.04 1.162.436 1.212 1.25a.236.236 0 0 0 .235.232h.01a.24.24 0 0 0 .228-.254c-.056-1.06-.634-1.658-1.66-1.713h-.01Z" fill="#000952"/></svg>