<svg width="92" height="92" xmlns="http://www.w3.org/2000/svg"><path d="M73.726 2.174c-1.85.917-3.073 3.342-3.828 7.655l-.233 1.294-.88.107c-3.936.54-6.9 1.96-7.979 3.792-.647 1.114-.575 2.731.18 3.827 1.186 1.707 3.468 2.713 8.05 3.504l.647.126.215 1.294c.306 1.743.989 4.096 1.51 5.139.575 1.096 1.922 2.587 2.695 2.965 1.132.539 2.372.359 3.288-.486.234-.197.45-.323.504-.287.125.144.449 3.935.449 5.48 0 .809-.054 2.067-.108 2.822l-.126 1.383h-.952c-3.414 0-6.343 3.432-5.93 6.99.234 2.084 1.617 3.989 3.63 4.977.916.45 1.258.521 2.587.521 1.276 0 1.69-.072 2.534-.467 1.366-.647 2.318-1.545 3.055-2.893.575-1.06.61-1.24.61-2.839 0-1.51-.053-1.833-.503-2.713-.27-.557-.844-1.348-1.275-1.743l-.79-.737v-4.097c.017-4.079-.234-7.025-.81-9.523-.161-.683-.197-1.24-.09-1.581.09-.306.324-1.348.522-2.336.215-.989.395-1.815.413-1.833.018-.018.898-.216 1.94-.413 5.032-.97 7.332-2.624 7.332-5.23 0-2.425-1.94-4.114-5.876-5.085-.97-.251-2.138-.503-2.587-.557l-.827-.125-.323-1.635c-.593-3.091-1.24-4.798-2.354-6.182-1.168-1.437-3.109-1.904-4.69-1.114Zm2.246 2.785c.845.593 1.76 3.037 2.282 6.092.36 2.174.61 2.533 1.94 2.695 1.402.18 4.061.809 5.068 1.204 1.006.395 1.976 1.078 2.246 1.563.557 1.042-2.857 2.678-6.559 3.163-1.293.162-2.048.431-2.228.772-.09.18-.287 1.079-.45 2.013-.736 4.295-2.173 7.098-3.323 6.487-.827-.45-2.067-3.774-2.534-6.793-.287-1.922-.521-2.138-2.623-2.48-1.977-.323-4.007-.88-4.996-1.365-.844-.431-1.725-1.204-1.725-1.527 0-.342 1.222-1.33 2.139-1.725.934-.396 3.935-1.132 5.354-1.312 1.258-.162 1.582-.557 1.833-2.246.485-3.162 1.402-5.75 2.264-6.433.593-.467.773-.485 1.312-.108Zm3.055 39.082c.988.486 1.67 1.51 1.796 2.66.108 1.132-.197 1.994-.952 2.731-1.76 1.725-4.474 1.222-5.498-1.006-.414-.88-.431-1.69-.054-2.57.808-1.94 2.82-2.713 4.708-1.815Z"/><path d="M18.813 10.96c-4.797.81-9.757 4.062-12.668 8.32-1.76 2.552-3.216 6.2-3.97 9.937-1.33 6.559-.791 14.645 1.527 22.803.646 2.335 7.654 23.413 8.822 26.593 1.204 3.27 2.444 5.966 3.432 7.385 1.653 2.444 4.205 4.151 6.793 4.582 1.096.18 1.49.162 2.659-.107 2.3-.504 4.007-1.564 5.39-3.325 1.726-2.228 2.66-4.528 4.061-10.044 1.582-6.253 2.228-7.942 3.648-9.488 1.276-1.401 2.3-1.689 3.845-1.096 1.33.486 2.678 1.815 3.432 3.378.647 1.33 1.15 3.127 2.103 7.368.36 1.635.898 3.683 1.204 4.582 2.156 6.415 6.073 9.541 10.943 8.733 4.204-.683 6.774-3.45 9.415-10.17 1.222-3.11 7.098-20.737 7.098-21.312 0-1.006-1.51-1.599-2.3-.934-.252.233-1.276 3.054-3.324 9.218-4.618 13.872-5.912 16.908-8.068 18.777-1.78 1.546-3.9 2.013-6.092 1.348-1.06-.324-1.455-.54-2.228-1.33-1.67-1.653-2.408-3.486-3.845-9.451-1.366-5.66-2.444-8.374-4.24-10.638-1.546-1.977-3.936-3.073-5.75-2.641-2.337.539-4.152 1.833-5.481 3.863-1.204 1.85-1.78 3.432-2.965 8.23-.557 2.264-1.222 4.69-1.473 5.39-1.15 3.235-2.893 5.642-4.672 6.433-.63.288-1.222.395-2.21.395-1.187.018-1.528-.072-2.57-.575-2.228-1.114-3.72-3.342-5.786-8.732-1.491-3.936-8.787-26.02-9.505-28.858-3.486-13.639-1.564-25.516 5.103-31.661 3-2.785 6.522-4.097 10.907-4.097 3.81 0 5.911.826 8.158 3.216 2.228 2.336 3.79 4.151 3.593 4.151-.09 0-1.276-.197-2.641-.45-1.348-.25-2.606-.412-2.785-.358-.468.161-1.06.952-1.06 1.455 0 .216.18.61.413.862.36.396.755.522 3.72 1.007 4.024.665 7.438 1.078 8.894 1.078 1.779-.018 3.827-.467 5.247-1.168 1.581-.773 2.82-1.887 4.797-4.295 2.48-3 3.72-4.025 5.876-4.87.611-.25 1.204-.574 1.348-.754.36-.467.305-1.204-.126-1.743-.539-.683-1.383-.629-3.216.252-2.085 1.024-3.486 2.192-5.822 4.923-3.522 4.097-4.133 4.492-6.846 4.51-1.69 0-1.887-.036-3.055-.61-.97-.486-1.581-.97-2.695-2.139-4.618-4.905-5.948-5.983-8.715-7.097-2.354-.917-5.75-1.276-8.32-.845Z"/><path d="M54.715 28.498c-1.348.701-1.743 1.474-2.498 4.78-.09.431-.233.503-1.563.79-2.731.594-4.205 1.941-4.061 3.72.144 1.653 1.743 2.93 4.259 3.378 1.132.198 1.275.27 1.365.683.054.252.216.97.36 1.582.682 2.677 2.515 4.132 4.312 3.378 1.581-.647 2.192-1.743 2.857-5.05.072-.305.306-.413 1.348-.593 2.677-.485 4.402-1.814 4.402-3.432 0-1.725-1.347-2.928-4.06-3.611-.827-.216-1.546-.414-1.582-.45-.036-.017-.18-.61-.306-1.275-.143-.665-.467-1.654-.718-2.175-.827-1.707-2.678-2.48-4.115-1.725Zm1.6 3.18c.25.378.628 1.816.898 3.415.161.862.575 1.132 2.282 1.455 2.443.468 3.306 1.06 2.192 1.528-.288.108-1.222.36-2.103.539-.916.197-1.743.485-1.922.683-.198.18-.45.916-.593 1.67-.557 2.84-1.096 3.54-1.617 2.121-.396-1.114-.647-2.138-.647-2.695 0-.935-.647-1.384-2.516-1.797-1.725-.36-2.695-.737-2.695-1.042 0-.234 1.797-.863 3.072-1.06.935-.162 1.959-.575 1.959-.81 0-.412.629-3.198.845-3.719.323-.808.485-.862.844-.287Z"/></svg>