<svg width="78" height="78" viewBox="0 0 78 78"  xmlns="http://www.w3.org/2000/svg">
<path d="M18.4793 1.37109C13.6652 2.05664 9.0187 4.8293 6.0023 8.82071C3.83901 11.7152 2.40698 15.341 1.56909 20.0332C1.18823 22.227 1.18823 29.4633 1.56909 32.0684C2.31558 37.0652 4.08276 43.7684 4.81401 44.4539C5.25581 44.85 5.77378 44.8805 6.38316 44.5605C7.05347 44.2254 7.0687 43.7836 6.4898 41.925C4.69214 36.1969 3.97612 32.2055 3.85425 27.102C3.73237 22.1355 4.08276 19.3172 5.25581 15.8285C7.00777 10.6336 11.4714 6.23087 16.7578 4.47891C17.946 4.08282 18.2355 4.05235 20.4902 4.05235C22.7753 4.03711 23.0039 4.06758 24.1464 4.46368C26.0355 5.13399 27.3304 5.97188 28.9453 7.60196C30.6363 9.32344 32.2054 11.1059 32.0988 11.2125C32.0074 11.3191 28.5339 10.725 27.0867 10.3441C26.4468 10.1918 25.7765 10.0547 25.6089 10.0547C24.7253 10.0547 24.3293 11.502 25.03 12.157C25.2738 12.3856 26.1269 12.675 27.7418 13.0863C31.7636 14.107 32.7234 14.2289 36.5625 14.2441C39.6855 14.2441 40.0968 14.2137 41.1785 13.8938C43.5093 13.2234 44.9261 12.2789 46.6171 10.2527C48.9785 7.43438 50.2125 6.35274 52.3148 5.30157C54.1277 4.3875 55.4988 4.06758 57.6621 4.06758C61.1965 4.05235 64.1976 5.17969 67.2597 7.64766C70.6722 10.3746 72.7441 14.3203 73.8258 20.0789C74.2828 22.5469 74.2523 30.8496 73.7801 32.0836C73.7191 32.2664 71.9824 32.2969 61.5468 32.2969H49.3898L49.3289 29.6613L49.2832 27.0258L48.7195 25.868C48.0339 24.4816 47.1504 23.6285 45.7336 22.9582L44.7129 22.4707H38.1468H31.5961L30.4382 23.0344C29.0519 23.7199 28.1988 24.6035 27.5285 26.0203C27.0562 27.0258 27.041 27.0867 26.9953 29.6613L26.9343 32.2816L17.5957 32.3273C8.65308 32.373 8.24175 32.3883 7.93706 32.6625C7.5105 33.0586 7.49527 34.0031 7.92183 34.4297C8.22652 34.7344 8.42456 34.7344 17.5804 34.7344H26.9343L26.9953 37.4461L27.041 40.1578L27.6046 41.3156C28.2902 42.702 29.1738 43.5551 30.5906 44.2254L31.6113 44.7129H38.1621H44.7129L45.7336 44.2254C46.2972 43.9664 47.0589 43.4637 47.4398 43.098C48.3996 42.2145 49.1765 40.6148 49.3136 39.259C49.3898 38.3145 49.3746 38.1926 49.0547 37.8574C48.7957 37.5832 48.5367 37.4766 48.1406 37.4766C47.3789 37.4766 47.0589 37.8727 46.8914 39C46.7543 40.0816 46.4953 40.6148 45.8402 41.2699C44.8195 42.2906 44.9871 42.2754 38.6953 42.3211C35.557 42.3516 32.6929 42.3211 32.3578 42.2754C31.4742 42.1535 30.3925 41.3918 29.8898 40.5387L29.4785 39.8379V33.5766V27.3152L29.9355 26.5688C30.225 26.1117 30.682 25.6547 31.139 25.3652L31.8855 24.9082H38.1621H44.4386L45.1851 25.3652C45.6422 25.6547 46.0992 26.1117 46.3886 26.5688L46.8457 27.3152L46.9218 30.7125C46.998 33.7594 47.0285 34.125 47.2875 34.4145L47.5769 34.7344H60.4347C72.5613 34.7344 73.2773 34.7496 73.2773 34.9934C73.2773 35.4352 72.5918 38.3297 72.0738 40.0664C71.2359 42.9457 64.6547 62.6285 63.6797 65.2031C63.1617 66.5895 62.4761 68.2805 62.1562 68.9508C60.2976 72.9727 57.6925 74.7855 54.4172 74.3285C53.1832 74.1457 52.391 73.7344 51.4769 72.7898C50.0449 71.2969 49.0089 68.6613 47.5464 62.7199C46.5105 58.5609 45.9468 56.809 45.1242 55.2246C44.3625 53.7926 43.0218 52.452 41.666 51.7816C40.6757 51.2941 40.5082 51.2637 39.0761 51.2637C37.7355 51.2637 37.4461 51.3094 36.6539 51.675C35.3132 52.3148 34.3535 53.0918 33.5918 54.1582C32.2968 55.9711 31.5504 58.043 30.3011 63.3141C29.0671 68.5852 27.9855 71.2664 26.4925 72.8203C25.6089 73.7344 24.8015 74.1457 23.5828 74.3285C21.4652 74.618 19.5914 73.9629 18.0832 72.3785C16.1332 70.3371 15.0972 67.8387 10.725 54.7828C9.29292 50.4867 8.42456 48.1254 8.21128 47.8816C7.72378 47.3789 6.84019 47.3941 6.41362 47.9273C6.23081 48.1559 6.0937 48.4758 6.0937 48.6586C6.0937 49.1461 11.2125 64.3957 12.2636 67.0312C14.1527 71.8148 15.4781 73.8563 17.7175 75.4254C19.1648 76.4461 20.7339 76.9336 22.5164 76.9336C26.9039 76.9184 29.7222 74.3133 31.5961 68.4785C31.8093 67.8082 32.3273 65.8277 32.7386 64.0605C33.9879 58.7285 34.78 56.6566 36.0293 55.316C37.3394 53.9145 39 53.5336 40.5996 54.2953C42.6867 55.2855 43.4941 57.0223 45.3984 64.5938C46.8761 70.4895 47.9882 73.0184 49.923 74.7855C51.5379 76.2785 53.2136 76.9336 55.4379 76.9336C60.13 76.9336 62.9789 74.1609 65.8277 66.8332C67.4578 62.6133 74.4199 41.407 75.1664 38.3906C77.1773 30.1945 77.2992 23.7352 75.5472 16.7273C74.3285 11.8219 72.8965 9.15586 70.0629 6.48985C66.5894 3.21445 62.141 1.37109 57.7382 1.37109C54.3714 1.37109 51.5379 2.30039 48.9023 4.28086C47.6379 5.2254 46.6933 6.20039 44.8195 8.40938C42.7781 10.8012 41.4527 11.4867 38.8476 11.502C37.4308 11.502 37.1566 11.4563 36.3644 11.0906C35.1457 10.5117 34.3535 9.82617 32.8453 8.01328C29.6765 4.18945 26.9648 2.33086 23.4152 1.58438C22.0441 1.29492 19.7285 1.18829 18.4793 1.37109Z"/>
</svg>
