<svg width="78" height="78" viewBox="0 0 78 78"  xmlns="http://www.w3.org/2000/svg">
<path d="M16.76 0.171265C11.4561 1.17854 6.57714 4.5466 3.79141 9.09505C2.42215 11.3142 0.974196 15.5794 0.36039 19.1363C-0.190462 22.3784 -0.0960302 28.7211 0.549253 32.7974C1.24175 37.1885 2.86283 43.2636 3.49237 43.8931C3.91732 44.3181 4.81442 44.1607 5.30231 43.5941C5.75873 43.059 5.743 42.9331 4.83016 39.7539C3.35073 34.686 2.65823 30.0117 2.65823 25.1957C2.65823 20.9305 3.06743 18.1133 4.13766 14.9183C5.96334 9.48853 10.5433 4.9558 16.036 3.14586C17.2637 2.73666 17.5627 2.70518 19.892 2.70518C22.2528 2.68944 22.4889 2.72092 23.6693 3.13012C25.6209 3.82262 26.9586 4.68825 28.6269 6.37228C30.3739 8.15074 31.995 9.99216 31.8848 10.1023C31.7904 10.2125 28.202 9.59869 26.7068 9.20523C26.0458 9.04784 25.3533 8.9062 25.1802 8.9062C24.2673 8.9062 23.8581 10.4014 24.5821 11.0781C24.8339 11.3142 25.7153 11.6132 27.3836 12.0382C31.1136 12.9825 32.4672 13.1871 35.8667 13.2658C38.5423 13.3287 39.1403 13.2973 40.4939 13.0297C43.4212 12.4159 44.9321 11.4244 47.4661 8.43404C49.5593 5.97881 50.6295 5.06597 52.6283 4.0587C55.6187 2.56353 59.6005 2.34319 62.9686 3.49211C67.0921 4.89285 70.7435 8.15074 72.8367 12.3372C74.505 15.6423 75.3549 20.0334 75.3706 25.1957C75.3706 28.7211 75.0873 31.4124 74.3476 35.111C73.6236 38.6994 73.5292 38.9669 69.3113 51.7152C63.5194 69.248 62.5909 71.5144 60.293 73.6076C58.7664 74.9926 57.0824 75.5435 54.9734 75.2917C53.0218 75.0713 51.6053 73.8909 50.4407 71.4829C49.4649 69.4841 49.0557 68.1621 47.828 63.2988C45.9394 55.7128 44.7275 53.478 41.7057 51.9828C40.7457 51.5106 40.5568 51.4791 39.0931 51.4791C37.7081 51.4791 37.4091 51.5264 36.5907 51.9041C33.2541 53.478 31.8219 56.0906 30.0277 63.9127C28.4538 70.8376 26.7698 74.0641 24.2831 74.9926C23.3545 75.3546 21.4659 75.4648 20.5058 75.2287C19.6402 75.0241 18.507 74.3474 17.6571 73.5447C15.5009 71.4987 14.2104 68.4296 9.18975 53.2891C7.89919 49.3859 6.89191 46.6159 6.70305 46.4113C5.97907 45.6086 4.54686 46.1752 4.54686 47.2455C4.54686 47.8278 10.1498 64.6366 11.3932 67.7686C13.392 72.8207 14.7297 74.851 17.2007 76.5665C19.6245 78.2348 23.1342 78.4709 25.8569 77.1488C27.5567 76.3147 29.288 74.3159 30.3267 72.0023C31.0822 70.334 31.7274 68.1778 32.5459 64.6996C33.8522 59.1911 34.6548 57.0506 35.9454 55.6656C36.9212 54.6269 37.7553 54.2334 38.9515 54.2334C40.1161 54.2334 41.0604 54.6426 41.9733 55.5397C43.2324 56.7516 43.8934 58.4986 45.483 64.7783C47.1828 71.4357 48.2687 73.9224 50.299 75.7796C51.9673 77.322 53.6986 77.9987 55.9964 77.9987C59.8523 77.9987 62.7168 75.9527 64.9517 71.5774C66.2737 68.9962 67.3911 65.9272 71.373 53.9973C76.2205 39.4076 76.6927 37.7551 77.6055 32.042C77.9203 30.0432 77.9675 29.1933 77.9675 25.2744C77.9518 20.4583 77.8416 19.4039 77.0074 16.083C75.3391 9.52 71.436 4.45216 66.0219 1.82381C63.6139 0.643417 61.9141 0.234215 59.1599 0.139786C55.6659 0.0296173 53.2893 0.611946 50.3462 2.35893C48.6307 3.3662 47.1356 4.70398 45.3728 6.79722C42.9491 9.67738 41.6585 10.3856 38.857 10.3856C37.3776 10.4014 37.1101 10.3541 36.2916 9.97642C35.0168 9.37835 34.4502 8.87472 32.4829 6.59261C29.3352 2.95699 26.9272 1.33592 23.1971 0.328651C21.8436 -0.0333405 18.3339 -0.11203 16.76 0.171265Z" />
<path d="M22.0797 18.7901C21.0881 19.1678 20.5216 19.5141 19.7818 20.2223C19.0421 20.8991 18.9792 21.5601 19.5772 22.1267C20.1124 22.6303 20.7576 22.5988 21.4187 22.048C23.024 20.6945 25.2274 20.6787 26.817 22.0008C27.478 22.5674 27.903 22.6618 28.4381 22.3785C28.9575 22.111 29.0991 21.8434 29.0991 21.1509C29.0991 20.5371 28.2807 19.7659 26.9114 19.0891C26.0301 18.6485 25.7153 18.5855 24.3933 18.554C23.2129 18.5068 22.7092 18.5698 22.0797 18.7901Z" />
<path d="M50.3147 18.8373C49.4019 19.0419 47.9697 19.8288 47.3244 20.4583C46.6319 21.1351 46.5532 21.7017 47.0568 22.347C47.529 22.945 48.2215 22.8978 49.1029 22.2053C50.8026 20.8833 52.77 20.8833 54.4225 22.2053C55.2567 22.8663 55.8547 22.9136 56.4056 22.3627C56.9879 21.7961 56.925 21.1666 56.2167 20.4583C54.7688 19.0733 52.2663 18.3808 50.3147 18.8373Z" />
<path d="M27.1318 29.8229C25.6524 30.4839 24.8969 32.1207 25.07 34.2612C25.5579 40.1789 29.6185 44.932 35.5205 46.4744C37.5822 47.0095 40.1948 47.0409 42.2094 46.553C47.6707 45.2153 51.8729 40.6983 52.8487 35.1268C53.2736 32.7975 52.8644 31.9319 51.4165 32.0263C50.8814 32.0578 50.5036 32.6873 50.5036 33.49C50.5036 34.4973 50.0944 36.4803 49.6695 37.4719C48.6622 39.8956 46.6477 42.0046 44.3026 43.1378C42.3668 44.0506 41.029 44.3654 39.0931 44.3654C32.9393 44.3182 28.1391 39.9271 27.5882 33.852C27.4938 32.829 27.5253 32.6716 27.8243 32.3726C28.265 31.9319 28.6112 31.9476 30.2323 32.5142C36.0713 34.4973 41.0762 34.576 46.931 32.7975C48.2058 32.4198 48.615 32.0735 48.615 31.3968C48.615 30.1377 47.954 29.8386 46.2385 30.3895C43.0907 31.381 40.0689 31.7273 37.0471 31.4282C34.5919 31.1922 33.2541 30.8931 31.0192 30.1377C28.9889 29.4609 28.0918 29.3822 27.1318 29.8229Z" />
</svg>
