<svg width="86" height="86" viewBox="0 0 86 86"  xmlns="http://www.w3.org/2000/svg">
<path d="M18.9804 1.49492C11.6402 3.12421 5.74447 8.76797 3.10736 16.6625C0.873379 23.3644 0.789394 31.4437 2.87221 40.9004C3.69525 44.6293 4.78705 46.4937 6.95385 47.9047C9.01986 49.2316 6.36596 49.1141 37.373 49.2148L65.0878 49.2988V51.6504C65.0878 53.8508 65.0542 54.0523 64.6679 54.7578C64.3824 55.2449 63.9792 55.648 63.4921 55.9336L62.7363 56.3535H43.0839C23.482 56.3535 23.4316 56.3535 22.7597 56.0008C21.8191 55.5137 21.1808 54.5395 21.0464 53.4309C20.9121 52.3055 20.5593 51.9023 19.6691 51.9023C19.1484 51.9023 18.93 52.0031 18.6445 52.3727C18.3253 52.759 18.2917 52.9605 18.3757 53.7332C18.6277 55.8832 20.1394 57.8652 22.1382 58.6379C23.0117 58.9738 23.4652 59.0242 26.9253 59.0914L30.7382 59.1586V60.9055V62.6523H29.5624C28.521 62.6523 28.3195 62.7027 27.9667 63.0723C27.4124 63.6098 27.4124 64.3824 27.9667 64.9199C28.3195 65.2895 28.521 65.3398 29.5624 65.3398H30.7382V67.1707V69.0016L29.4953 69.0687C27.9835 69.1359 27.5468 69.4383 27.5468 70.3621C27.5636 71.4203 27.866 71.6219 29.4953 71.7227L30.9398 71.8066L31.3093 72.9824C32.3675 76.3082 35.2398 80.1043 38.8175 82.8926C42.7648 85.9832 45.9226 85.2945 50.2394 80.4234C52.6245 77.7023 53.9179 75.6363 54.7745 73.1672L55.2449 71.8066L56.4374 71.7227C57.8148 71.6219 58.1171 71.3867 58.1171 70.3789C58.1171 69.5055 57.6636 69.1527 56.4374 69.0687L55.4296 69.0016V67.1707V65.3398H56.3702C57.4956 65.3398 57.8316 65.1719 58.1171 64.5C58.3859 63.8617 58.1171 63.1227 57.5124 62.8371C57.2101 62.7027 53.6995 62.6523 45.2675 62.6523H33.4257V60.8887V59.1418L48.2574 59.0914L63.0722 59.041L64.08 58.6379C65.4574 58.0836 66.8347 56.7062 67.3554 55.3457C67.6745 54.5059 67.7417 53.9012 67.8257 51.7848L67.9097 49.2148H71.8906C77.2656 49.2148 78.6429 48.9125 80.3394 47.3672C81.7839 46.0402 82.4222 44.6125 83.2956 40.7324C85.7816 29.7137 85.1097 20.0723 81.3304 12.6984C78.391 6.9371 73.3351 3.14101 67.0363 1.94843C65.4406 1.64609 62.5851 1.5957 60.9726 1.84765C56.9749 2.46914 53.4476 4.58554 50.4242 8.18008C48.6437 10.2965 47.3671 11.3715 45.7546 12.1273C44.6964 12.6312 44.4613 12.6816 42.9999 12.6816C41.5722 12.6816 41.2867 12.6312 40.3124 12.1609C38.7335 11.4051 37.7089 10.5148 35.8277 8.28085C33.1402 5.10625 31.5445 3.77929 28.9578 2.58672C26.9085 1.6293 25.4304 1.31015 22.7597 1.24297C20.8953 1.19257 20.1058 1.24297 18.9804 1.49492ZM26.0015 4.35039C28.5882 5.10625 31.1581 6.81953 32.8378 8.93594C33.3081 9.50703 34.1144 10.4644 34.6687 11.0355L35.6429 12.077L35.0046 11.9762C34.6351 11.9258 33.7113 11.6906 32.9218 11.4555C30.9902 10.9012 30.8054 10.8676 30.3183 10.9852C29.7472 11.1363 29.3273 12.0602 29.5624 12.6648C29.7808 13.2359 30.2511 13.5047 31.914 14.0086C36.1132 15.2684 42.1769 15.8227 45.0324 15.218C47.2663 14.7477 49.3827 13.3535 51.432 11.0355C55.3456 6.60117 58.1339 4.88789 62.266 4.35039C66.9691 3.7625 72.4281 5.92929 76.1066 9.87656C82.0359 16.209 83.6484 27.8828 80.4402 41.1523C79.6507 44.4613 78.8445 45.5531 76.7449 46.2082C75.7538 46.5105 74.7124 46.5273 42.9831 46.5273C10.3468 46.5273 10.2628 46.5273 9.339 46.1746C8.21361 45.7547 7.07143 44.6965 6.46674 43.5039C5.5765 41.7402 4.5183 36.0293 4.16557 31.1918C3.81283 26.2367 4.41752 21.1305 5.81166 17.116C8.18002 10.2629 13.3535 5.44218 19.7531 4.11523C21.3656 3.77929 24.4058 3.89687 26.0015 4.35039ZM52.7421 67.1875V69.0352H43.0839H33.4257V67.1875V65.3398H43.0839H52.7421V67.1875ZM52.3054 72.0922C51.8687 73.5535 50.4242 76.073 49.1476 77.6016C47.8374 79.1805 45.805 81.0953 44.9652 81.5656C44.2765 81.952 43.8902 82.0527 43.0839 82.0359C41.4714 82.0359 40.4132 81.3305 38.0113 78.6262C35.9956 76.3754 34.4167 73.9062 33.8624 72.0922L33.7449 71.7227H43.0839H52.423L52.3054 72.0922Z" />
</svg>
