<svg width="33" height="33" viewBox="0 0 33 33"  xmlns="http://www.w3.org/2000/svg">
<path d="M6.875 6.87488H24.75C25.844 6.87488 26.8932 7.30948 27.6668 8.08306C28.4404 8.85665 28.875 9.90586 28.875 10.9999V23.3749C28.875 24.4689 28.4404 25.5181 27.6668 26.2917C26.8932 27.0653 25.844 27.4999 24.75 27.4999H6.875C5.78098 27.4999 4.73177 27.0653 3.95818 26.2917C3.1846 25.5181 2.75 24.4689 2.75 23.3749V10.9999C2.75 9.90586 3.1846 8.85665 3.95818 8.08306C4.73177 7.30948 5.78098 6.87488 6.875 6.87488ZM6.875 8.24988C6.204 8.24988 5.588 8.4905 5.11088 8.89063L15.8125 15.8399L26.5141 8.89063C26.0199 8.47595 25.3952 8.24903 24.75 8.24988H6.875ZM15.8125 17.4789L4.30925 10.0099C4.18727 10.3257 4.1248 10.6613 4.125 10.9999V23.3749C4.125 24.1042 4.41473 24.8037 4.93046 25.3194C5.44618 25.8351 6.14565 26.1249 6.875 26.1249H24.75C25.4793 26.1249 26.1788 25.8351 26.6945 25.3194C27.2103 24.8037 27.5 24.1042 27.5 23.3749V10.9999C27.5 10.6506 27.4354 10.3165 27.3158 10.0099L15.8125 17.4775V17.4789Z" />
</svg>
