<svg width="104" height="104" viewBox="0 0 104 104"  xmlns="http://www.w3.org/2000/svg">
<path d="M30.1032 2.03124C29.8594 2.25468 29.6157 2.66093 29.5344 2.925C29.4735 3.16874 29.4532 6.03281 29.4938 9.26249L29.5547 15.1328L30.1235 16.2906C31.1188 18.3016 32.9063 19.5 35.2016 19.6625L36.5625 19.7641V22.75C36.5625 26.4469 36.8063 27.2797 38.2688 28.7625C39.5891 30.0828 40.7063 30.4688 43.1032 30.4688H44.8907V33.7391V36.9891L44.4438 36.8672C43.0829 36.4609 41.7422 35.4656 39.4469 33.15C35.9328 29.6359 33.6579 28.2547 30.225 27.5437C22.2625 25.8984 13.4266 31.0781 9.42504 39.7109C6.50004 46.0687 6.35785 55.6969 9.07973 65.4062C9.60785 67.3156 16.0469 85.8203 17.6313 89.9844C19.6829 95.4078 21.0235 97.8047 23.0344 99.6938C26.1625 102.619 30.3063 103.208 33.9219 101.238C35.2422 100.527 37.0094 98.6375 37.761 97.1344C38.8375 94.9813 40.625 89.3547 40.625 88.1156C40.625 87.3234 39.8125 86.5313 39 86.5313C38.1875 86.5313 37.6594 87.1 37.2938 88.4C36.1563 92.5641 35.8516 93.4984 35.161 94.9609C33.8 97.8859 32.4797 98.9219 29.961 99.0844C27.1985 99.2469 24.9641 97.825 23.2985 94.8391C22.2422 92.9703 20.4954 88.5219 17.7532 80.7422C13.7313 69.3672 12.025 64.1875 11.4969 61.75C9.6891 53.5438 10.0547 46.0281 12.5125 40.8484C14.8079 35.9531 19.4797 32.2359 24.6188 31.2C27.6657 30.5703 30.2657 30.9156 33.1094 32.3172C34.5922 33.0484 35.1407 33.4953 37.0094 35.425C38.2282 36.6437 39.2032 37.7203 39.2032 37.8016C39.2032 37.9844 37.1719 37.6391 34.8969 37.0703C33.8204 36.7859 32.825 36.5625 32.7032 36.5625C32.236 36.5625 31.4844 37.5578 31.4844 38.1875C31.4844 39.2031 31.8094 39.5484 33.15 39.9953C37.9032 41.5594 44.5453 41.9656 48.5266 40.9297C51.411 40.1781 52.1016 39.6703 57.0985 34.3891C59.4547 31.8906 61.8313 30.875 65.325 30.875C68.4125 30.875 71.561 31.9109 74.5875 33.9422C76.2328 35.0391 78.9141 37.8016 79.8078 39.2641C82.0625 43.0625 83.1391 48.7906 82.6719 54.5594C82.1641 61.0391 81.6157 63.0094 75.9688 79.0156C71.2969 92.2797 70.2203 94.8188 68.4328 96.7688C66.8891 98.4547 65.711 99.0031 63.6797 99.0234C61.75 99.0234 60.8563 98.6578 59.5969 97.3781C57.9719 95.6922 56.8953 93.1125 55.25 86.9375C54.6813 84.7844 53.9907 82.4891 53.7266 81.8188C52.3047 78.3047 49.2375 76.1922 45.9266 76.4156C44.261 76.5375 42.961 77.1063 41.7422 78.2234C39.3453 80.4375 39.1016 82.875 41.275 82.875C42.0875 82.875 42.3719 82.6719 43.4485 81.25C45.3172 78.7719 48.9328 79.4016 50.4766 82.4891C50.9844 83.4844 51.5735 85.4141 52.9953 90.7156C54.6 96.6672 56.3063 99.6734 58.9875 101.258C61.425 102.7 65.3657 102.72 68.0875 101.339C69.1032 100.831 70.9313 99.1453 71.7235 97.9875C72.536 96.8094 73.9578 93.9047 74.9532 91.4266C76.1922 88.2984 83.1391 68.4734 83.85 66.0156C86.3891 57.3016 86.6938 49.3594 84.7641 42.6562C83.0985 36.8469 78.9547 32.0328 73.2672 29.3516C68.2297 26.9547 63.3141 26.8125 59.0078 28.9453C56.7125 30.0828 55.1891 31.3016 53.5235 33.4344C52.7922 34.3484 51.8782 35.3438 51.4922 35.6281C50.7203 36.2172 48.811 37.1719 48.3844 37.1719C48.1813 37.1719 48.1407 36.4406 48.1813 33.8609L48.2422 30.5703L50.375 30.4688C52.7922 30.3469 53.625 30.0219 54.8641 28.7016C56.3266 27.1781 56.55 26.4875 56.6313 22.9328L56.7125 19.7641L57.9922 19.6422C60.3485 19.4594 62.4 17.9766 63.1719 15.9047C63.5375 14.9297 63.5782 14.3203 63.5782 9.85155V4.87499H78.1625C91.0203 4.87499 92.7875 4.91562 93.1938 5.19999C93.6204 5.48437 93.6407 5.66718 93.6407 7.8203C93.6407 9.97343 93.6204 10.1562 93.1938 10.4406C92.7875 10.725 91.2032 10.7656 80.1125 10.7656C67.661 10.7656 67.4782 10.7656 66.95 11.1922C66.1985 11.7812 66.1985 13 66.95 13.5891C67.4782 14.0156 67.6407 14.0156 80.2141 14.0156C88.5422 14.0156 93.1938 13.9344 93.7016 13.7922C94.6969 13.5281 96.0375 12.3094 96.5047 11.2734C97.0532 10.0953 97.0532 5.5453 96.5047 4.36718C96.0375 3.33125 94.6969 2.1125 93.7016 1.84843C93.1735 1.68593 84.1344 1.62499 65.2438 1.62499H37.5578L37.0704 2.1328C36.7453 2.43749 36.5625 2.86405 36.5625 3.24999C36.5625 3.63593 36.7453 4.06249 37.0704 4.36718L37.5578 4.87499H48.9532H60.3282V9.64843C60.3282 14.95 60.2469 15.3156 59.0485 16.0469C58.4188 16.4328 57.9516 16.4531 46.6172 16.4531C35.5875 16.4531 34.775 16.4328 34.1453 16.0875C32.7641 15.3359 32.7032 15.0312 32.7032 8.47031V2.62031L32.1954 2.1328C31.586 1.50312 30.7125 1.4828 30.1032 2.03124ZM53.4219 22.3438C53.4219 25.2687 53.2188 26.0609 52.3047 26.7719C51.7563 27.1984 51.5735 27.2188 46.6782 27.2188C42.3516 27.2188 41.5188 27.1781 41.0313 26.8937C39.975 26.2438 39.8125 25.7156 39.8125 22.5672V19.7031H46.6172H53.4219V22.3438Z" />
</svg>
