<svg width="22" height="32" viewBox="0 0 22 32"  xmlns="http://www.w3.org/2000/svg">
<path d="M10.6875 7.37525C11.7649 7.37525 12.7982 7.80326 13.5601 8.56513C14.322 9.32699 14.75 10.3603 14.75 11.4377C14.75 12.5152 14.322 13.5485 13.5601 14.3104C12.7982 15.0722 11.7649 15.5002 10.6875 15.5002C9.61002 15.5002 8.57671 15.0722 7.81484 14.3104C7.05298 13.5485 6.62496 12.5152 6.62496 11.4377C6.62496 10.3603 7.05298 9.32699 7.81484 8.56513C8.57671 7.80326 9.61002 7.37525 10.6875 7.37525ZM10.6875 9.00025C10.041 9.00025 9.42101 9.25706 8.96389 9.71418C8.50677 10.1713 8.24996 10.7913 8.24996 11.4377C8.24996 12.0842 8.50677 12.7042 8.96389 13.1613C9.42101 13.6184 10.041 13.8752 10.6875 13.8752C11.3339 13.8752 11.9539 13.6184 12.411 13.1613C12.8682 12.7042 13.125 12.0842 13.125 11.4377C13.125 10.7913 12.8682 10.1713 12.411 9.71418C11.9539 9.25706 11.3339 9.00025 10.6875 9.00025ZM3.04996 16.0804L10.6875 28.6416L18.325 16.0804C19.1487 14.7251 19.5969 13.1751 19.6237 11.5894C19.6505 10.0037 19.2549 8.43944 18.4774 7.05714C17.7 5.67484 16.5687 4.52431 15.1997 3.72363C13.8308 2.92294 12.2734 2.50095 10.6875 2.50095C9.10154 2.50095 7.54417 2.92294 6.1752 3.72363C4.80624 4.52431 3.67498 5.67484 2.89753 7.05714C2.12008 8.43944 1.72445 10.0037 1.75124 11.5894C1.77803 13.1751 2.22627 14.7251 3.04996 16.0804ZM19.7127 16.9254L10.6875 31.7697L1.66221 16.9254C0.689035 15.3237 0.159544 13.4919 0.128076 11.618C0.0966089 9.74413 0.564298 7.8956 1.48315 6.26215C2.402 4.62869 3.73893 3.26913 5.35672 2.32298C6.97452 1.37683 8.81493 0.878174 10.6891 0.878174C12.5632 0.878174 14.4037 1.37683 16.0215 2.32298C17.6393 3.26913 18.9762 4.62869 19.895 6.26215C20.8139 7.8956 21.2816 9.74413 21.2501 11.618C21.2186 13.4919 20.6891 15.3237 19.716 16.9254H19.7127Z" />
</svg>
