<svg width="36" height="36" viewBox="0 0 36 36" fill="none" xmlns="http://www.w3.org/2000/svg">
<path fill-rule="evenodd" clip-rule="evenodd" d="M14.5798 1.44083C9.69958 -1.30417 5.37734 -0.0137906 1.78296 4.34896C-1.68429 8.55871 0.68046 16.148 2.37921 21.6042C2.78421 22.9047 3.15209 24.0848 3.39396 25.0681C4.64834 30.1756 5.84984 33.3593 8.58696 35.6633C9.94259 36.8041 11.4805 34.8432 13.1027 32.7755C14.509 30.9822 15.9782 29.108 17.4486 29.1035C18.8942 29.099 20.341 30.971 21.7281 32.7642C23.329 34.8342 24.85 36.803 26.1977 35.6633C28.2902 33.8971 29.2386 32.6011 30.3883 28.9628C31.6405 24.995 33.6643 20.2497 35.2731 14.78C36.4048 10.9325 36.5398 7.01296 33.2785 3.23183C28.621 -2.16817 22.1668 0.621835 19.162 2.40721L23.2322 5.89471C23.3445 5.99089 23.4367 6.10824 23.5037 6.24006C23.5706 6.37188 23.6109 6.5156 23.6223 6.663C23.6337 6.8104 23.6159 6.9586 23.57 7.09914C23.5241 7.23968 23.451 7.3698 23.3548 7.48209C23.2587 7.59437 23.1413 7.6866 23.0095 7.75353C22.8777 7.82046 22.7339 7.86077 22.5865 7.87215C22.4391 7.88354 22.2909 7.86578 22.1504 7.8199C22.0099 7.77401 21.8797 7.70089 21.7675 7.60471L14.5798 1.43971V1.44083Z" fill="#06D6A0"/>
</svg>
