<svg width="33" height="33" viewBox="0 0 33 33"  xmlns="http://www.w3.org/2000/svg">
<path d="M11.1875 6.18727C11.1848 7.83389 11.4454 9.47034 11.9594 11.0347C12.1448 11.6267 11.9853 12.2206 11.5675 12.6079L11.56 12.6148L11.5528 12.6221L9.58934 14.5979L9.32694 14.862L9.50466 15.1891C11.4098 18.6956 14.2902 21.5749 17.7973 23.4789L18.1254 23.657L18.3894 23.3931L20.3673 21.4152C20.5734 21.2145 20.8299 21.0733 21.1098 21.0066C21.3896 20.9399 21.6823 20.9502 21.9567 21.0363C23.5192 21.5515 25.1522 21.8125 26.8125 21.8125C27.6735 21.8125 28.375 22.514 28.375 23.375V28.1875C28.375 29.0485 27.6735 29.75 26.8125 29.75C13.8199 29.75 3.25 19.1801 3.25 6.1875C3.25 5.32652 3.95152 4.625 4.8125 4.625H9.625C10.4859 4.625 11.1874 5.32639 11.1875 6.18727ZM11.1875 6.18727C11.1875 6.18707 11.1875 6.18687 11.1875 6.18667L11.6875 6.1875H11.1875C11.1875 6.18742 11.1875 6.18735 11.1875 6.18727ZM20.6267 21.6858L20.6247 21.6878L18.2036 24.1102C14.1068 21.9496 11.0181 18.8606 8.87517 14.7835L11.3016 12.3447C11.4594 12.1954 11.5718 12.0044 11.6257 11.7937C11.6805 11.5793 11.6723 11.3537 11.602 11.1438L11.1279 11.3025L11.6026 11.1456C11.0793 9.5623 10.8125 7.89108 10.8125 6.1875C10.8125 5.87256 10.6874 5.57051 10.4647 5.34781C10.242 5.12511 9.93994 5 9.625 5H4.8125C4.49756 5 4.19551 5.12511 3.97281 5.34781C3.75011 5.57051 3.625 5.87256 3.625 6.1875C3.625 18.9734 14.0266 29.375 26.8125 29.375C27.4668 29.375 28 28.8418 28 28.1875V23.375C28 22.7207 27.4668 22.1875 26.8125 22.1875C25.1091 22.1875 23.4379 21.9208 21.845 21.3933L21.8451 21.3933L21.8362 21.3905C21.6267 21.3255 21.4036 21.3186 21.1905 21.3706C20.9775 21.4226 20.7826 21.5316 20.6267 21.6858Z" stroke="#000952" />
</svg>
