<svg width="24" height="24" viewBox="0 0 24 24" xmlns="http://www.w3.org/2000/svg">
<path d="M9.83041 13.5244C11.28 14.995 13.0341 16.1304 14.9693 16.8508L17.5874 14.7675C17.665 14.714 17.757 14.6854 17.8512 14.6854C17.9455 14.6854 18.0375 14.714 18.1151 14.7675L22.9762 17.8994C23.1608 18.0104 23.317 18.1627 23.4326 18.3444C23.5481 18.5261 23.6198 18.7322 23.6421 18.9464C23.6643 19.1606 23.6364 19.377 23.5606 19.5786C23.4849 19.7801 23.3632 19.9613 23.2054 20.1078L20.9276 22.3578C20.6014 22.6801 20.2005 22.9166 19.7606 23.0463C19.3208 23.1759 18.8557 23.1947 18.4068 23.1008C13.9292 22.176 9.80203 20.0102 6.49707 16.8508C3.26546 13.66 1.02921 9.60003 0.0595734 5.16333C-0.036214 4.72141 -0.0162218 4.26224 0.117612 3.83032C0.251446 3.3984 0.494584 3.00838 0.823462 2.69805L3.18457 0.42027C3.33068 0.270122 3.50887 0.154975 3.70579 0.0834488C3.9027 0.011923 4.11325 -0.0141274 4.32166 0.00724821C4.53008 0.0286238 4.73095 0.0968715 4.90925 0.206881C5.08755 0.31689 5.23865 0.465811 5.35124 0.642492L8.58735 5.4411C8.64317 5.51645 8.6733 5.60775 8.6733 5.70152C8.6733 5.79529 8.64317 5.88659 8.58735 5.96194L6.45541 8.52444C7.19539 10.4209 8.34828 12.1289 9.83041 13.5244Z" />
</svg>
