<svg width="111" height="107" viewBox="0 0 111 107" xmlns="http://www.w3.org/2000/svg">
<ellipse cx="55.6411" cy="53.3951" rx="55.2768" ry="53.3951"  fill-opacity="0.17"/>
<ellipse cx="55.6413" cy="53.3951" rx="46.7727" ry="45.1805"  fill-opacity="0.42"/>
<path d="M55.9601 16.7374C34.827 16.7374 17.6916 33.2895 17.6916 53.7032C17.6916 74.1169 34.827 90.6691 55.9601 90.6691C77.0933 90.6691 94.2287 74.1169 94.2287 53.7032C94.2287 33.2895 77.0933 16.7374 55.9601 16.7374ZM68.2693 54.2725L49.6134 67.3839C49.5111 67.4549 49.3905 67.4972 49.2649 67.5064C49.1393 67.5155 49.0136 67.491 48.9015 67.4356C48.7894 67.3801 48.6952 67.2959 48.6294 67.1922C48.5636 67.0884 48.5287 66.9692 48.5285 66.8475V40.6414C48.5281 40.5195 48.5626 40.3999 48.6283 40.2958C48.694 40.1917 48.7882 40.1072 48.9005 40.0516C49.0129 39.9961 49.1389 39.9717 49.2648 39.9811C49.3906 39.9905 49.5112 40.0334 49.6134 40.1051L68.2693 53.2081C68.3574 53.2683 68.4293 53.3481 68.4789 53.4407C68.5286 53.5333 68.5545 53.6361 68.5545 53.7403C68.5545 53.8446 68.5286 53.9474 68.4789 54.04C68.4293 54.1326 68.3574 54.2123 68.2693 54.2725Z" fill="white"/>
</svg>
