<svg width="55" height="48" viewBox="0 0 55 48" fill="none" xmlns="http://www.w3.org/2000/svg">
<g filter="url(#filter0_d_238_363)">
<circle cx="27.5" cy="23" r="22.5" stroke="url(#paint0_linear_238_363)" stroke-opacity="0.5"/>
<path d="M33.6035 23.3536C33.7987 23.1583 33.7987 22.8417 33.6035 22.6464L30.4215 19.4645C30.2262 19.2692 29.9096 19.2692 29.7144 19.4645C29.5191 19.6597 29.5191 19.9763 29.7144 20.1716L32.5428 23L29.7144 25.8284C29.5191 26.0237 29.5191 26.3403 29.7144 26.5355C29.9096 26.7308 30.2262 26.7308 30.4215 26.5355L33.6035 23.3536ZM5.6499 23.5H33.2499V22.5H5.6499V23.5Z" fill="url(#paint1_linear_238_363)" fill-opacity="0.59"/>
</g>
<defs>
<filter id="filter0_d_238_363" x="0.5" y="0" width="54" height="54" filterUnits="userSpaceOnUse" color-interpolation-filters="sRGB">
<feFlood flood-opacity="0" result="BackgroundImageFix"/>
<feColorMatrix in="SourceAlpha" type="matrix" values="0 0 0 0 0 0 0 0 0 0 0 0 0 0 0 0 0 0 127 0" result="hardAlpha"/>
<feOffset dy="4"/>
<feGaussianBlur stdDeviation="2"/>
<feComposite in2="hardAlpha" operator="out"/>
<feColorMatrix type="matrix" values="0 0 0 0 0 0 0 0 0 0 0 0 0 0 0 0 0 0 0.25 0"/>
<feBlend mode="normal" in2="BackgroundImageFix" result="effect1_dropShadow_238_363"/>
<feBlend mode="normal" in="SourceGraphic" in2="effect1_dropShadow_238_363" result="shape"/>
</filter>
<linearGradient id="paint0_linear_238_363" x1="49.35" y1="19.55" x2="7.95" y2="20.125" gradientUnits="userSpaceOnUse">
<stop stop-color="#06D6A0"/>
<stop offset="1" stop-color="#06D6A0" stop-opacity="0"/>
</linearGradient>
<linearGradient id="paint1_linear_238_363" x1="25.1999" y1="23" x2="5.6499" y2="23" gradientUnits="userSpaceOnUse">
<stop stop-color="#06D6A0"/>
<stop offset="1" stop-color="#06D6A0" stop-opacity="0"/>
</linearGradient>
</defs>
</svg>
