<svg width="91" height="91" viewBox="0 0 91 91"  xmlns="http://www.w3.org/2000/svg">
<path d="M65.9928 1.68848C65.2463 2.22168 65.3885 3.83906 66.2061 4.15898C66.366 4.2123 67.9301 4.26562 69.6896 4.26562H72.8711V13.6678V23.0699L67.859 23.141C63.1846 23.1943 62.7758 23.2299 61.9937 23.5854C60.8207 24.1186 59.6477 25.2561 59.1678 26.358C58.7945 27.1756 58.7412 27.5488 58.7412 29.6816C58.7412 31.9566 58.7768 32.1344 59.2389 33.0941C59.7721 34.1783 60.5541 34.9604 61.7271 35.5824C62.4736 35.9912 62.4914 35.9912 72.3912 36.0445L82.291 36.0979V46.0154C82.291 55.3109 82.2732 56.0219 81.9355 57.3371C81.4912 59.0967 80.1049 61.9227 78.9496 63.4689C76.8168 66.2772 74.7906 67.3436 72.9955 66.5793C70.5428 65.5484 67.3791 61.0162 66.4727 57.2305C66.1527 55.8264 66.1172 55.1332 66.1172 47.6684V39.617L65.6729 39.1904C65.4062 38.9061 65.033 38.7461 64.6953 38.7461C64.3576 38.7461 63.9844 38.9061 63.7178 39.1904L63.2734 39.617V47.8461C63.2734 55.1865 63.309 56.2529 63.6111 57.6748C64.3576 61.265 65.9395 64.1977 68.4988 66.7393C69.8318 68.0723 70.365 68.4633 71.4848 68.9609L72.8711 69.583V77.8832V86.1834L73.3332 86.5389C74.133 87.1787 75.1994 86.8943 75.5371 85.9701C75.6437 85.6324 75.7148 82.5754 75.7148 77.4922V69.5475L77.0834 68.8543C78.683 68.0545 80.9047 65.975 82.0244 64.251C83.0553 62.6869 83.9973 60.6785 84.5482 58.8834L85.0459 57.3193L85.1348 46.6908L85.2236 36.0623L86.1123 35.7602C87.8186 35.1736 88.9916 33.9828 89.4893 32.2943C89.8625 31.0324 89.8447 28.0287 89.4537 26.8379C89.0627 25.5938 87.7475 24.1719 86.5211 23.6209C85.6146 23.2299 85.3658 23.1943 80.6559 23.141L75.7148 23.0699V13.6678V4.26562H78.8963C81.7578 4.26562 82.1133 4.23008 82.4865 3.92793C82.8064 3.6791 82.9131 3.4125 82.9131 2.84375C82.9131 2.275 82.8064 2.0084 82.4865 1.75957C82.0955 1.43964 81.6689 1.42188 74.2219 1.42188C67.5391 1.42188 66.3127 1.45742 65.9928 1.68848ZM85.668 26.3936C86.6277 26.9623 86.9121 27.7088 86.9121 29.6461C86.9121 30.9258 86.841 31.4412 86.5566 31.9744C85.899 33.2719 86.3078 33.2363 74.1508 33.2363H63.3268L62.7225 32.8275C61.7982 32.2055 61.4961 31.4412 61.4961 29.6816C61.5139 27.3889 62.0115 26.4824 63.54 26.1092C63.8422 26.0381 68.801 25.9848 74.5596 26.0025C84.7615 26.0381 85.0637 26.0559 85.668 26.3936Z" />
<path d="M53.3203 15.1074C50.3166 15.9072 48.0949 17.4535 45.7133 20.4039C43.1717 23.5498 41.3232 24.8473 39.1549 25.025C36.951 25.2027 35.0314 24.1363 32.9164 21.6125C31.0502 19.373 29.5394 17.9156 28.3486 17.1514C22.6434 13.49 14.5742 14.3965 8.79785 19.3375C5.77637 21.9146 3.6791 25.5582 2.39941 30.4281C1.01308 35.7246 1.01308 42.3896 2.41719 49.1791C3.11035 52.5738 3.66133 54.4223 7.57148 66.2061C12.7613 81.8111 13.8633 84.4949 16.1738 86.9654C18.1822 89.116 19.9773 89.8447 22.9988 89.7203C24.5984 89.667 24.9184 89.5959 26.0025 89.0627C28.2953 87.9252 30.126 85.4369 31.4412 81.7045C31.7434 80.8514 32.3832 78.5586 32.8809 76.6035C34.2672 71.2004 34.8893 69.5475 36.1156 68.1434C38.0707 65.9217 40.95 66.5971 42.5141 69.6186C43.3316 71.2004 43.7404 72.4801 44.6113 76.248C45.8555 81.5978 46.993 84.4949 48.7703 86.7521C49.6768 87.9074 51.383 89.116 52.6627 89.4893C53.9957 89.8803 56.5728 89.8447 57.9947 89.4004C61.6383 88.2807 63.6822 84.957 67.3435 74.2396C68.0367 72.1957 68.6055 70.365 68.6055 70.1873C68.6055 69.9918 68.41 69.6363 68.1611 69.4053C67.5746 68.801 66.6326 68.801 66.1527 69.4053C65.9572 69.6363 65.2463 71.5203 64.5531 73.5643C62.1359 80.6559 60.643 83.8728 59.0078 85.4902C57.8525 86.6633 57.1594 86.9121 55.1687 86.9121C53.4447 86.9121 52.6627 86.5744 51.4896 85.4191C49.7656 83.6951 48.8414 81.4557 47.384 75.466C45.6422 68.3744 44.3803 66.0105 41.5898 64.642C40.559 64.1266 40.2746 64.0732 38.835 64.0732C37.3775 64.0732 37.1109 64.1266 36.0445 64.6598C33.2896 66.0105 32.0633 68.3389 30.126 75.8926C28.6152 81.7223 27.5488 84.1572 25.807 85.6857C24.7051 86.6633 23.7809 86.9654 22.2346 86.8766C19.0176 86.681 17.2758 84.7615 14.8941 78.7363C13.6145 75.5549 6.71836 54.7422 5.97187 51.8984C4.56777 46.4953 4.17676 43.225 4.31894 38.0707C4.42558 34.125 4.67441 32.4543 5.6164 29.6283C6.57617 26.7135 8.12246 24.243 10.202 22.2523C11.8016 20.7416 12.7436 20.084 14.6098 19.1953C17.4891 17.8268 20.4572 17.4357 23.0521 18.0934C25.967 18.8398 27.7266 19.9951 30.126 22.7855L31.69 24.5807L30.7303 24.4562C30.1971 24.3852 28.9707 24.1541 27.9932 23.9408C27.0156 23.7275 25.9492 23.5676 25.6115 23.5676C24.4562 23.5854 23.923 25.0072 24.7584 25.8426C25.6826 26.7668 33.1652 27.9043 38.3906 27.9043C42.0164 27.9043 44.2381 26.6602 47.384 22.8211C49.2857 20.5283 50.4055 19.5152 51.9873 18.751C53.7113 17.8979 55.0621 17.5957 57.0705 17.5957C59.8965 17.5957 62.9713 18.6266 65.5662 20.4395C66.5793 21.1504 67.2547 21.3103 67.8945 20.9727C68.3389 20.7238 68.6232 19.8174 68.4277 19.2842C68.0723 18.36 64.1799 16.2449 61.2295 15.3562C58.99 14.6986 55.2932 14.5742 53.3203 15.1074Z" />
</svg>
