<svg width="19" height="19" viewBox="0 0 19 19" fill="none" xmlns="http://www.w3.org/2000/svg">
<path d="M9.02379 0.00300885C7.49904 0.0214151 4.22095 0.271978 2.38745 1.95407C1.02361 3.30545 0.547418 5.30342 0.491606 7.77401C0.445293 10.2357 0.389481 14.8586 4.84557 16.1174V18.0346C4.84557 18.0346 4.81767 18.8017 5.32473 18.9591C5.94936 19.1568 6.30501 18.5666 6.89876 17.9325L8.00611 16.6803C11.055 16.9338 13.3902 16.3495 13.6592 16.2629C14.2779 16.0651 17.7626 15.6198 18.332 10.9963C18.9163 6.22135 18.0476 3.21282 16.4795 1.85195H16.47C15.9968 1.41613 14.095 0.0303214 9.84614 0.0148839C9.84614 0.0148839 9.53086 -0.00649114 9.02379 0.00241511V0.00300885ZM9.07604 1.34548C9.50889 1.34251 9.77192 1.36092 9.77192 1.36092C13.3683 1.37042 15.0848 2.45282 15.4897 2.81738C16.8102 3.94907 17.4907 6.66132 16.9925 10.6478C16.5193 14.5131 13.693 14.7577 13.1699 14.9245C12.9473 14.9958 10.8905 15.5029 8.29942 15.336C8.29942 15.336 6.36973 17.6647 5.76648 18.2644C5.67089 18.3695 5.55926 18.4004 5.48801 18.3849C5.38589 18.36 5.35501 18.2335 5.36095 18.0601L5.37936 14.8782C1.60014 13.8332 1.82279 9.89013 1.86317 7.83041C1.90948 5.7707 2.29601 4.08563 3.4467 2.94445C4.99579 1.54379 7.77929 1.35498 9.07486 1.34548H9.07604ZM9.36104 3.4046C9.32994 3.40429 9.29908 3.41013 9.27025 3.4218C9.24141 3.43347 9.21517 3.45073 9.19304 3.47259C9.17091 3.49445 9.15332 3.52047 9.14129 3.54915C9.12926 3.57784 9.12303 3.60862 9.12295 3.63973C9.12295 3.77273 9.23101 3.87782 9.36104 3.87782C9.94975 3.86663 10.5348 3.97209 11.0826 4.18813C11.6303 4.40417 12.1299 4.72652 12.5525 5.13657C13.4152 5.97435 13.8355 7.1001 13.8516 8.57201C13.8516 8.70204 13.9567 8.8101 14.0897 8.8101V8.8006C14.1524 8.80076 14.2126 8.77613 14.2572 8.73209C14.3018 8.68805 14.3271 8.62816 14.3278 8.56548C14.3566 7.87266 14.2442 7.18122 13.9975 6.53317C13.7508 5.88512 13.3749 5.29401 12.8927 4.79576C11.9528 3.87723 10.7617 3.40401 9.36104 3.40401V3.4046ZM6.23139 3.94907C6.06332 3.92451 5.89192 3.95825 5.7457 4.04466H5.73323C5.39376 4.24365 5.08795 4.49516 4.82717 4.78982C4.61045 5.04038 4.49289 5.29391 4.46201 5.53795C4.44361 5.68341 4.45607 5.82888 4.49942 5.96782L4.51486 5.97732C4.75889 6.69457 5.07773 7.38451 5.46723 8.03407C5.96896 8.94664 6.58642 9.7906 7.30429 10.545L7.32567 10.5759L7.35951 10.6009L7.38089 10.6258L7.40582 10.6472C8.16299 11.3671 9.009 11.9875 9.92332 12.4931C10.9683 13.0619 11.6024 13.3309 11.983 13.4425V13.4485C12.0947 13.4823 12.1962 13.4978 12.2983 13.4978C12.6227 13.474 12.9297 13.3423 13.1705 13.1237C13.4639 12.8628 13.7126 12.5558 13.9068 12.2147V12.2087C14.0891 11.8655 14.0273 11.5408 13.7643 11.3211C13.2375 10.8606 12.6679 10.4516 12.0632 10.0997C11.6583 9.88004 11.2468 10.013 11.0799 10.2357L10.7243 10.684C10.542 10.9066 10.2107 10.8758 10.2107 10.8758L10.2012 10.8817C7.73061 10.2505 7.07154 7.74907 7.07154 7.74907C7.07154 7.74907 7.04067 7.40885 7.26926 7.23548L7.71457 6.87685C7.92773 6.70348 8.07617 6.2926 7.84757 5.88707C7.49809 5.28154 7.09001 4.71177 6.6292 4.18598C6.52846 4.06202 6.38713 3.97768 6.2302 3.94788L6.23139 3.94907ZM9.77192 4.65445C9.45664 4.65445 9.45664 5.13063 9.77489 5.13063C10.1669 5.13699 10.5539 5.22055 10.9136 5.37652C11.2733 5.5325 11.5988 5.75784 11.8714 6.03966C12.1201 6.31398 12.3112 6.63542 12.4334 6.98494C12.5556 7.33446 12.6063 7.70494 12.5827 8.07445C12.5838 8.13698 12.6093 8.1966 12.6538 8.24055C12.6983 8.28449 12.7583 8.30927 12.8208 8.30957L12.8303 8.32204C12.8933 8.32157 12.9536 8.29634 12.9982 8.25179C13.0427 8.20724 13.068 8.14695 13.0684 8.08395C13.0898 7.14048 12.7965 6.34901 12.2211 5.71488C11.6428 5.08076 10.8359 4.7251 9.80576 4.65445H9.77192ZM10.162 5.93457C9.83723 5.92507 9.82476 6.41076 10.1466 6.42026C10.9291 6.46063 11.3091 6.85607 11.359 7.66951C11.3601 7.73125 11.3853 7.79012 11.4293 7.83351C11.4732 7.8769 11.5324 7.90136 11.5941 7.90166H11.6036C11.6354 7.9003 11.6665 7.89263 11.6953 7.8791C11.7241 7.86556 11.7498 7.84644 11.7711 7.82283C11.7924 7.79923 11.8087 7.77163 11.8192 7.74163C11.8297 7.71164 11.8342 7.67985 11.8322 7.64813C11.7764 6.5877 11.1981 5.99038 10.1715 5.93516H10.162V5.93457Z" fill="#000952"/>
</svg>
