<svg width="92" height="92" viewBox="0 0 92 92"  xmlns="http://www.w3.org/2000/svg">
<path d="M73.7258 2.17422C71.8751 3.09063 70.6532 5.51641 69.8985 9.82891L69.6649 11.1227L68.7844 11.2305C64.8493 11.7695 61.8844 13.1891 60.8063 15.0219C60.1594 16.1359 60.2313 17.7531 60.986 18.8492C62.1719 20.5563 64.454 21.5625 69.036 22.3531L69.6829 22.4789L69.8985 23.7727C70.204 25.5156 70.8868 27.8695 71.4079 28.9117C71.9829 30.0078 73.3305 31.4992 74.1032 31.8766C75.2352 32.4156 76.4751 32.2359 77.3915 31.3914C77.6251 31.1938 77.8407 31.068 77.8946 31.1039C78.0204 31.2477 78.3438 35.0391 78.3438 36.5844C78.3438 37.393 78.2899 38.6508 78.236 39.4055L78.1102 40.7891H77.1579C73.7438 40.7891 70.8149 44.2211 71.2282 47.7789C71.4618 49.8633 72.8454 51.768 74.8579 52.7563C75.7743 53.2055 76.1157 53.2773 77.4454 53.2773C78.7211 53.2773 79.1344 53.2055 79.979 52.8102C81.3446 52.1633 82.2969 51.2648 83.0336 49.9172C83.6086 48.857 83.6446 48.6773 83.6446 47.0781C83.6446 45.5688 83.5907 45.2453 83.1415 44.3648C82.8719 43.8078 82.2969 43.0172 81.8657 42.6219L81.0751 41.8852V37.7883C81.093 33.7094 80.8415 30.7625 80.2665 28.2648C80.1047 27.582 80.0688 27.025 80.1766 26.6836C80.2665 26.3781 80.5 25.3359 80.6977 24.3477C80.9133 23.3594 81.093 22.5328 81.111 22.5148C81.129 22.4969 82.0094 22.2992 83.0516 22.1016C88.0829 21.1313 90.3829 19.4781 90.3829 16.8727C90.3829 14.4469 88.4422 12.7578 84.5071 11.7875C83.5368 11.5359 82.3688 11.2844 81.9196 11.2305L81.093 11.1047L80.7696 9.46953C80.1766 6.37891 79.5297 4.67188 78.4157 3.28828C77.2477 1.85078 75.3071 1.38359 73.7258 2.17422ZM75.9719 4.95938C76.8165 5.55235 77.7329 7.99609 78.254 11.0508C78.6133 13.225 78.8649 13.5844 80.1946 13.7461C81.5961 13.9258 84.2555 14.5547 85.2618 14.95C86.268 15.3453 87.2383 16.0281 87.5079 16.5133C88.0649 17.5555 84.6508 19.1906 80.9493 19.6758C79.6555 19.8375 78.9008 20.107 78.7211 20.4484C78.6313 20.6281 78.4336 21.5266 78.2719 22.4609C77.5352 26.7555 76.0977 29.5586 74.9477 28.9477C74.1211 28.4984 72.8813 25.1742 72.4141 22.1555C72.1266 20.2328 71.893 20.0172 69.7907 19.6758C67.8141 19.3523 65.7836 18.7953 64.7954 18.3102C63.9508 17.8789 63.0704 17.1063 63.0704 16.7828C63.0704 16.4414 64.2922 15.4531 65.2086 15.0578C66.143 14.6625 69.1438 13.9258 70.5633 13.7461C71.8211 13.5844 72.1446 13.1891 72.3961 11.5C72.8813 8.3375 73.7977 5.75 74.6602 5.06719C75.2532 4.6 75.4329 4.58203 75.9719 4.95938ZM79.0266 44.0414C80.0149 44.5266 80.6977 45.5508 80.8235 46.7008C80.9313 47.8328 80.6258 48.6953 79.8711 49.432C78.1102 51.157 75.3969 50.6539 74.3727 48.4258C73.9594 47.5453 73.9415 46.7367 74.3188 45.8563C75.1274 43.9156 77.1399 43.143 79.0266 44.0414Z" />
<path d="M18.8133 10.9609C14.0157 11.7695 9.05629 15.0219 6.14536 19.2805C4.38442 21.832 2.92895 25.4797 2.17426 29.2172C0.844575 35.7758 1.38364 43.8617 3.70161 52.0195C4.34848 54.3555 11.3563 75.4328 12.5243 78.6133C13.7282 81.8836 14.968 84.5789 15.9563 85.9984C17.6094 88.4422 20.161 90.1492 22.7485 90.5805C23.8446 90.7602 24.2399 90.7422 25.4079 90.4727C27.7079 89.9695 29.4149 88.9094 30.7985 87.1484C32.5235 84.9203 33.4579 82.6203 34.8594 77.1039C36.4407 70.8508 37.0875 69.1617 38.5071 67.6164C39.7829 66.2148 40.8071 65.9273 42.3524 66.5203C43.6821 67.0055 45.0297 68.3352 45.7844 69.8984C46.4313 71.2281 46.9344 73.025 47.8868 77.2656C48.2461 78.9008 48.7852 80.9492 49.0907 81.8477C51.2469 88.2625 55.1641 91.3891 60.0336 90.5805C64.2383 89.8977 66.8079 87.1305 69.4493 80.4102C70.6711 77.3016 76.5469 59.6742 76.5469 59.0992C76.5469 58.093 75.0376 57.5 74.2469 58.1648C73.9954 58.3984 72.9711 61.2195 70.9227 67.3828C66.3047 81.2547 65.011 84.2914 62.8547 86.1602C61.0758 87.7055 58.9555 88.1727 56.7633 87.5078C55.7032 87.1844 55.3079 86.9688 54.5352 86.1781C52.8641 84.525 52.1274 82.6922 50.6899 76.7266C49.3243 71.0664 48.2461 68.3531 46.4493 66.0891C44.904 64.1125 42.5141 63.0164 40.6993 63.4477C38.3633 63.9867 36.5485 65.2805 35.2188 67.3109C34.0149 69.1617 33.4399 70.743 32.254 75.5406C31.6969 77.8047 31.0321 80.2305 30.7805 80.9313C29.6305 84.1656 27.8875 86.5734 26.1086 87.3641C25.4797 87.6516 24.8868 87.7594 23.8985 87.7594C22.7125 87.7773 22.3711 87.6875 21.329 87.1844C19.1008 86.0703 17.6094 83.8422 15.543 78.4516C14.0516 74.5164 6.75629 52.4328 6.03754 49.5938C2.55161 35.9555 4.47426 24.0781 11.1407 17.9328C14.1415 15.1477 17.6633 13.8359 22.0477 13.8359C25.8571 13.8359 27.9594 14.6625 30.2055 17.0523C32.4336 19.3883 33.9969 21.2031 33.7993 21.2031C33.7094 21.2031 32.5235 21.0055 31.1579 20.7539C29.8102 20.5023 28.5524 20.3406 28.3727 20.3945C27.9055 20.5563 27.3125 21.3469 27.3125 21.85C27.3125 22.0656 27.4922 22.4609 27.7258 22.7125C28.0852 23.1078 28.4805 23.2336 31.4454 23.7188C35.4704 24.3836 38.8844 24.7969 40.3399 24.7969C42.1188 24.7789 44.1672 24.3297 45.5868 23.6289C47.168 22.8562 48.4079 21.7422 50.3844 19.3344C52.8641 16.3336 54.104 15.3094 56.2602 14.4648C56.8711 14.2133 57.4641 13.8898 57.6079 13.7102C57.9672 13.243 57.9133 12.5062 57.4821 11.9672C56.943 11.2844 56.0985 11.3383 54.2657 12.2187C52.1813 13.243 50.7797 14.4109 48.4438 17.1422C44.9219 21.2391 44.311 21.6344 41.5977 21.6523C39.9086 21.6523 39.711 21.6164 38.543 21.0414C37.5727 20.5563 36.9618 20.0711 35.8477 18.9031C31.2297 13.9977 29.9 12.9195 27.1329 11.8055C24.779 10.8891 21.3829 10.5297 18.8133 10.9609Z" />
<path d="M54.7149 28.4984C53.3672 29.1992 52.9719 29.9719 52.2172 33.2781C52.1274 33.7094 51.9836 33.7813 50.6539 34.0688C47.9227 34.6617 46.4492 36.0094 46.593 37.7883C46.7367 39.4414 48.336 40.7172 50.8516 41.1664C51.9836 41.3641 52.1274 41.4359 52.2172 41.8492C52.2711 42.1008 52.4328 42.8195 52.5766 43.4305C53.2594 46.1078 55.0922 47.5633 56.8891 46.8086C58.4703 46.1617 59.0813 45.0656 59.7461 41.7594C59.818 41.4539 60.0516 41.3461 61.0938 41.1664C63.7711 40.6813 65.4961 39.3516 65.4961 37.7344C65.4961 36.0094 64.1485 34.8055 61.4352 34.1227C60.6086 33.907 59.8899 33.7094 59.8539 33.6734C59.818 33.6555 59.6742 33.0625 59.5485 32.3977C59.4047 31.7328 59.0813 30.7445 58.8297 30.2234C58.0031 28.5164 56.1524 27.7438 54.7149 28.4984ZM56.3141 31.6789C56.5656 32.0563 56.943 33.4938 57.2125 35.093C57.3742 35.9555 57.7875 36.225 59.4946 36.5484C61.9383 37.0156 62.8008 37.6086 61.6867 38.0758C61.3992 38.1836 60.4649 38.4352 59.5844 38.6148C58.668 38.8125 57.8414 39.1 57.6617 39.2977C57.4641 39.4773 57.2125 40.2141 57.0688 40.9688C56.5117 43.8078 55.9727 44.5086 55.4516 43.0891C55.0563 41.975 54.8047 40.9508 54.8047 40.3938C54.8047 39.4594 54.1578 39.0102 52.2891 38.5969C50.5641 38.2375 49.5938 37.8602 49.5938 37.5547C49.5938 37.3211 51.3906 36.6922 52.6664 36.4945C53.6008 36.3328 54.625 35.9195 54.625 35.6859C54.625 35.2727 55.2539 32.4875 55.4696 31.9664C55.793 31.1578 55.9547 31.1039 56.3141 31.6789Z" />
</svg>
